<?xml version="1.0" standalone="no"?>
<!DOCTYPE svg PUBLIC "-//W3C//DTD SVG 20010904//EN"
 "http://www.w3.org/TR/2001/REC-SVG-20010904/DTD/svg10.dtd">
<svg version="1.0" xmlns="http://www.w3.org/2000/svg"
 width="607.000000pt" height="667.000000pt" viewBox="0 0 607.000000 667.000000"
 preserveAspectRatio="xMidYMid meet">

<g transform="translate(0.000000,667.000000) scale(0.100000,-0.100000)"
fill="#000000" stroke="none">
<path d="M199 6566 c-77 -27 -122 -80 -139 -162 -7 -34 -10 -173 -8 -396 3
-378 4 -383 68 -445 59 -57 94 -63 384 -63 230 -1 257 -2 224 -14 -59 -21 -85
-42 -115 -93 l-28 -48 0 -386 0 -386 30 -48 c22 -36 45 -57 84 -77 l53 -28
382 0 c324 -1 376 -3 345 -14 -59 -21 -96 -53 -123 -108 l-26 -52 0 -360 c0
-226 4 -375 11 -400 16 -57 84 -120 148 -137 l52 -13 -45 -13 c-57 -17 -119
-85 -135 -148 -7 -28 -11 -168 -11 -388 0 -391 4 -417 67 -479 70 -69 65 -68
530 -68 354 -1 412 -3 382 -14 -52 -18 -94 -51 -121 -94 l-23 -37 0 -396 0
-395 28 -42 c15 -23 46 -54 69 -69 41 -28 44 -28 242 -34 111 -3 192 -6 180
-7 -35 -3 -110 -58 -135 -98 l-24 -39 -3 -375 c-2 -254 0 -387 8 -413 14 -49
65 -106 115 -128 38 -17 89 -19 870 -19 555 0 843 4 868 11 21 6 56 26 77 45
70 64 71 71 68 500 l-3 380 -27 42 c-15 22 -49 54 -75 69 l-48 28 -345 5
c-190 3 -333 8 -318 13 39 10 95 63 121 111 22 40 22 49 22 416 0 368 0 376
-22 417 -27 51 -82 96 -132 112 -22 6 -110 11 -202 11 -155 1 -162 2 -129 16
45 20 86 59 113 109 21 39 22 53 25 398 3 392 -1 433 -54 497 -28 32 -90 69
-121 71 -10 1 4 5 31 11 70 13 129 57 160 120 l26 52 0 365 c0 400 -1 408 -62
473 -61 64 -52 63 -516 66 l-423 3 53 27 c38 20 61 41 83 77 l30 48 0 386 0
386 -28 47 c-18 31 -44 57 -75 75 l-47 28 -350 5 c-192 3 -342 7 -331 8 34 4
96 45 120 81 14 20 30 56 35 81 14 59 14 681 0 740 -14 61 -50 111 -102 141
l-42 24 -840 2 c-665 2 -847 0 -876 -11z m1758 -39 c22 -15 50 -46 64 -70 l24
-42 0 -375 0 -375 -27 -47 c-21 -34 -41 -53 -80 -72 l-52 -26 -826 0 -826 0
-50 25 c-54 27 -91 74 -105 132 -11 50 -11 677 0 726 13 56 57 113 104 137 42
20 51 20 888 18 l846 -3 40 -28z m674 -1082 c23 -16 52 -48 63 -70 20 -38 21
-54 21 -415 0 -361 -1 -377 -21 -415 -11 -22 -40 -53 -63 -70 l-43 -30 -928 0
-928 0 -43 30 c-23 17 -52 48 -63 70 -20 38 -21 57 -24 398 -2 235 1 371 8
398 13 48 76 114 122 128 20 6 387 9 945 8 l911 -2 43 -30z m783 -1057 c52
-16 108 -72 124 -124 8 -29 12 -144 12 -393 0 -295 -3 -358 -15 -389 -21 -49
-52 -81 -100 -103 -38 -18 -88 -19 -983 -19 -829 0 -947 2 -980 15 -49 21 -81
52 -103 100 -17 37 -19 71 -19 405 0 334 2 368 19 405 23 50 58 83 108 100 53
19 1873 22 1937 3z m-49 -1079 c61 -17 120 -82 134 -147 15 -70 15 -672 0
-742 -13 -62 -57 -115 -114 -141 -38 -18 -91 -19 -946 -19 l-905 0 -50 25
c-57 28 -100 87 -109 149 -4 22 -5 199 -3 391 3 383 2 378 66 438 60 58 30 56
997 57 622 0 902 -3 930 -11z m350 -1100 c25 -7 56 -27 82 -54 60 -63 64 -92
61 -486 -3 -367 -5 -376 -67 -434 -17 -17 -46 -35 -63 -42 -24 -8 -214 -12
-701 -12 -581 -1 -672 1 -705 14 -49 21 -81 52 -103 100 -17 37 -19 71 -19
405 0 334 2 368 19 405 23 50 58 83 108 100 50 18 1324 21 1388 4z m727 -1104
c25 -18 52 -49 66 -75 22 -43 22 -51 22 -407 0 -306 -2 -370 -15 -401 -21 -49
-52 -81 -100 -103 -38 -18 -84 -19 -868 -19 -725 0 -832 2 -865 15 -49 21 -81
52 -103 100 -17 37 -19 72 -19 406 0 362 0 366 23 409 12 24 34 52 48 62 64
48 50 48 936 45 l831 -2 44 -30z"/>
<path d="M1015 6400 c-3 -6 1 -7 9 -4 18 7 21 14 7 14 -6 0 -13 -4 -16 -10z"/>
<path d="M1280 6400 c0 -5 5 -10 10 -10 6 0 10 5 10 10 0 6 -4 10 -10 10 -5 0
-10 -4 -10 -10z"/>
<path d="M243 6392 c-12 -8 -18 -31 -15 -64 2 -22 47 -34 67 -18 18 15 20 61
3 78 -14 14 -37 15 -55 4z m51 -27 c8 -23 -4 -45 -25 -45 -22 0 -34 22 -25 45
3 8 14 15 25 15 10 0 21 -7 25 -15z"/>
<path d="M340 6338 c0 -21 5 -38 10 -38 6 0 10 14 10 30 0 20 5 30 15 30 8 0
15 4 15 9 0 5 -11 8 -25 7 -22 -1 -25 -6 -25 -38z"/>
<path d="M407 6373 c-2 -5 -3 -28 -2 -53 1 -48 21 -64 50 -40 21 17 19 30 -4
30 -27 0 -35 17 -12 23 10 2 20 14 24 26 4 18 1 21 -23 21 -16 0 -31 -3 -33
-7z m33 -18 c0 -8 -4 -15 -10 -15 -5 0 -10 7 -10 15 0 8 5 15 10 15 6 0 10 -7
10 -15z m5 -65 c-3 -5 -13 -10 -21 -10 -8 0 -14 5 -14 10 0 6 9 10 21 10 11 0
17 -4 14 -10z"/>
<path d="M490 6369 c0 -6 7 -9 15 -6 8 4 17 2 20 -2 2 -5 -7 -12 -21 -15 -37
-10 -28 -41 13 -43 29 -1 31 1 27 25 -3 15 -7 33 -9 40 -5 15 -45 16 -45 1z
m40 -39 c0 -5 -7 -10 -15 -10 -8 0 -15 5 -15 10 0 6 7 10 15 10 8 0 15 -4 15
-10z"/>
<path d="M570 6338 c0 -21 5 -38 10 -38 6 0 10 14 10 30 0 20 5 30 15 30 10 0
15 -10 15 -30 0 -16 5 -30 11 -30 6 0 9 16 7 38 -3 34 -5 37 -35 37 -32 1 -33
-1 -33 -37z"/>
<path d="M670 6343 c0 -24 2 -43 4 -43 8 0 12 60 4 72 -4 8 -8 -4 -8 -29z"/>
<path d="M724 6367 c16 -12 16 -14 2 -26 -25 -21 -19 -41 12 -41 23 1 25 2 9
11 -16 9 -16 12 -2 32 21 30 19 37 -12 37 -24 0 -25 -1 -9 -13z"/>
<path d="M790 6371 c0 -6 3 -10 8 -10 23 4 33 -4 12 -10 -36 -10 -34 -46 3
-46 26 -1 28 2 25 35 -2 28 -8 36 -25 38 -13 2 -23 -1 -23 -7z m30 -40 c0 -6
-4 -13 -10 -16 -5 -3 -10 1 -10 9 0 9 5 16 10 16 6 0 10 -4 10 -9z"/>
<path d="M874 6366 c-11 -29 1 -61 24 -64 27 -4 29 14 2 21 -11 3 -20 10 -20
17 0 7 9 14 20 17 11 3 20 9 20 14 0 15 -40 10 -46 -5z"/>
<path d="M953 6340 c0 -25 2 -35 4 -22 2 12 2 32 0 45 -2 12 -4 2 -4 -23z"/>
<path d="M988 6355 c-15 -33 8 -61 41 -50 18 5 22 13 19 38 -4 43 -42 51 -60
12z m47 -15 c0 -8 -8 -16 -17 -18 -13 -2 -18 3 -18 18 0 15 5 20 18 18 9 -2
17 -10 17 -18z"/>
<path d="M1081 6335 c2 -28 3 -32 6 -13 2 14 11 32 18 38 16 13 20 8 29 -40 2
-14 3 -7 3 15 -2 36 -4 40 -29 40 -26 1 -28 -2 -27 -40z"/>
<path d="M1210 6361 c0 -10 7 -21 15 -25 8 -3 15 -10 15 -15 0 -6 -7 -8 -15
-5 -8 4 -15 1 -15 -5 0 -6 9 -11 20 -11 27 0 38 30 17 42 -10 5 -17 14 -17 19
0 6 5 7 10 4 6 -3 10 -1 10 4 0 6 -9 11 -20 11 -13 0 -20 -7 -20 -19z"/>
<path d="M1280 6340 c0 -22 5 -40 10 -40 6 0 10 18 10 40 0 22 -4 40 -10 40
-5 0 -10 -18 -10 -40z"/>
<path d="M1330 6339 c0 -22 4 -39 8 -39 4 0 8 12 7 27 0 43 32 43 38 1 4 -28
4 -27 3 7 -1 36 -3 40 -28 41 -26 1 -28 -2 -28 -37z"/>
<path d="M232 6183 c-11 -21 -4 -93 9 -93 5 0 10 16 10 35 2 44 2 47 12 63 5
8 3 12 -7 12 -8 0 -19 -8 -24 -17z"/>
<path d="M280 6190 c0 -5 5 -10 10 -10 6 0 10 5 10 10 0 6 -4 10 -10 10 -5 0
-10 -4 -10 -10z"/>
<path d="M660 6182 c0 -13 -7 -18 -22 -18 -20 1 -23 -4 -23 -34 0 -32 3 -35
31 -37 30 -1 31 -1 33 53 1 32 -2 54 -8 54 -6 0 -11 -8 -11 -18z m0 -52 c0
-11 -7 -20 -15 -20 -8 0 -15 9 -15 20 0 11 7 20 15 20 8 0 15 -9 15 -20z"/>
<path d="M830 6147 c0 -31 4 -57 8 -57 8 0 5 100 -3 109 -3 2 -5 -21 -5 -52z"/>
<path d="M280 6130 c0 -22 5 -40 10 -40 6 0 10 18 10 40 0 22 -4 40 -10 40 -5
0 -10 -18 -10 -40z"/>
<path d="M331 6126 c1 -38 2 -39 8 -11 3 17 13 30 21 30 8 0 18 -13 22 -30 6
-26 6 -25 5 10 -2 36 -5 40 -29 41 -26 1 -28 -1 -27 -40z"/>
<path d="M420 6155 c-18 -21 2 -65 30 -65 11 0 20 5 20 10 0 6 -3 9 -7 9 -19
-3 -33 2 -33 11 0 6 11 10 25 10 27 0 32 9 13 28 -16 16 -33 15 -48 -3z m35
-5 c3 -5 -1 -10 -10 -10 -9 0 -13 5 -10 10 3 6 8 10 10 10 2 0 7 -4 10 -10z"/>
<path d="M504 6158 c-4 -6 2 -19 15 -29 20 -17 13 -38 -9 -24 -5 3 -10 1 -10
-4 0 -6 11 -11 25 -11 30 0 35 33 8 49 -17 10 -17 10 0 11 9 0 17 5 17 10 0
14 -37 13 -46 -2z"/>
<path d="M712 6158 c-15 -15 -15 -41 0 -56 14 -14 48 -16 48 -3 0 5 -7 8 -16
7 -9 0 -19 5 -21 12 -3 7 5 12 21 12 14 0 26 4 26 8 0 12 -22 32 -35 32 -6 0
-16 -5 -23 -12z m33 -8 c3 -5 -1 -10 -10 -10 -9 0 -13 5 -10 10 3 6 8 10 10
10 2 0 7 -4 10 -10z"/>
<path d="M870 6143 c0 -39 11 -51 43 -50 24 2 27 6 27 40 0 20 -4 37 -10 37
-5 0 -10 -13 -10 -30 0 -20 -5 -30 -15 -30 -10 0 -15 10 -15 30 0 17 -4 30
-10 30 -5 0 -10 -12 -10 -27z"/>
<path d="M972 6158 c-25 -25 -6 -68 30 -68 10 0 18 5 18 10 0 6 -9 10 -20 10
-13 0 -20 7 -20 20 0 13 7 20 20 20 11 0 20 5 20 10 0 14 -33 13 -48 -2z"/>
<path d="M1040 6128 c0 -21 5 -38 10 -38 6 0 10 14 10 30 0 20 5 30 15 30 8 0
15 4 15 9 0 5 -11 8 -25 7 -22 -1 -25 -6 -25 -38z"/>
<path d="M1112 6158 c-29 -29 -1 -75 38 -63 17 5 20 13 18 38 -3 35 -33 48
-56 25z m43 -28 c0 -8 -8 -16 -17 -18 -13 -2 -18 3 -18 18 0 15 5 20 18 18 9
-2 17 -10 17 -18z"/>
<path d="M490 5973 c0 -14 -6 -19 -22 -19 -20 1 -23 -4 -23 -34 0 -32 3 -35
30 -37 30 -1 30 0 29 48 0 46 -14 86 -14 42z m0 -53 c0 -11 -6 -20 -14 -20
-18 0 -29 16 -21 30 11 18 35 11 35 -10z"/>
<path d="M530 5980 c0 -5 5 -10 10 -10 6 0 10 5 10 10 0 6 -4 10 -10 10 -5 0
-10 -4 -10 -10z"/>
<path d="M650 5980 c0 -5 5 -10 10 -10 6 0 10 5 10 10 0 6 -4 10 -10 10 -5 0
-10 -4 -10 -10z"/>
<path d="M973 5935 c0 -33 2 -45 4 -27 2 18 2 45 0 60 -2 15 -4 0 -4 -33z"/>
<path d="M228 5958 c-9 -28 7 -73 27 -76 17 -2 18 -1 5 10 -21 18 -24 47 -5
55 13 5 14 7 3 14 -18 12 -25 11 -30 -3z"/>
<path d="M291 5915 l1 -40 9 33 c5 17 14 32 19 32 6 0 10 4 10 8 0 4 -9 8 -20
8 -17 0 -20 -7 -19 -41z"/>
<path d="M360 5950 c0 -6 5 -8 10 -5 6 3 16 3 22 -1 9 -6 5 -10 -12 -14 -37
-9 -34 -45 3 -46 26 -1 28 1 25 35 -2 29 -8 37 -25 39 -13 2 -23 -2 -23 -8z
m34 -39 c3 -5 -1 -11 -9 -15 -9 -3 -15 0 -15 9 0 16 16 20 24 6z"/>
<path d="M530 5920 c0 -22 5 -40 10 -40 6 0 10 18 10 40 0 22 -4 40 -10 40 -5
0 -10 -18 -10 -40z"/>
<path d="M582 5948 c-28 -28 1 -78 35 -62 16 7 15 8 -4 11 -26 5 -33 43 -8 43
8 0 15 5 15 10 0 14 -23 13 -38 -2z"/>
<path d="M650 5920 c0 -22 5 -40 10 -40 6 0 10 18 10 40 0 22 -4 40 -10 40 -5
0 -10 -18 -10 -40z"/>
<path d="M703 5953 c-18 -7 -16 -48 3 -64 31 -26 70 25 44 56 -13 15 -25 17
-47 8z m37 -33 c0 -11 -7 -20 -15 -20 -8 0 -15 9 -15 20 0 11 7 20 15 20 8 0
15 -9 15 -20z"/>
<path d="M785 5952 c-9 -10 -5 -72 5 -72 6 0 10 14 10 30 0 20 5 30 15 30 10
0 15 -10 15 -30 0 -16 5 -30 11 -30 6 0 9 16 7 38 -3 33 -6 37 -30 38 -15 1
-30 -1 -33 -4z"/>
<path d="M884 5948 c-5 -8 -2 -9 9 -5 9 3 19 2 22 -3 4 -6 0 -10 -7 -10 -23 0
-39 -16 -32 -33 4 -10 16 -15 35 -14 24 2 29 6 29 28 0 40 -38 66 -56 37z m36
-37 c0 -12 -20 -25 -27 -18 -7 7 6 27 18 27 5 0 9 -4 9 -9z"/>
<path d="M1010 5890 c0 -5 5 -10 10 -10 6 0 10 5 10 10 0 6 -4 10 -10 10 -5 0
-10 -4 -10 -10z"/>
<path d="M610 5770 c0 -12 -5 -17 -13 -14 -8 3 -20 -2 -27 -11 -20 -24 1 -63
34 -61 24 1 26 4 26 54 0 28 -4 52 -10 52 -5 0 -10 -9 -10 -20z m5 -50 c0 -8
-8 -16 -17 -18 -13 -2 -18 3 -18 18 0 15 5 20 18 18 9 -2 17 -10 17 -18z"/>
<path d="M1050 5772 c0 -13 -7 -18 -22 -18 -20 1 -23 -4 -23 -34 0 -32 2 -35
33 -37 l32 -1 0 54 c0 30 -4 54 -10 54 -5 0 -10 -8 -10 -18z m0 -52 c0 -11 -6
-20 -13 -20 -19 0 -27 10 -20 26 8 21 33 17 33 -6z"/>
<path d="M1440 5780 c0 -5 5 -10 10 -10 6 0 10 5 10 10 0 6 -4 10 -10 10 -5 0
-10 -4 -10 -10z"/>
<path d="M230 5730 c0 -46 2 -50 24 -50 29 0 43 17 41 51 -2 36 -13 49 -41 49
-22 0 -24 -4 -24 -50z m50 20 c0 -5 -9 -10 -20 -10 -11 0 -20 5 -20 10 0 6 9
10 20 10 11 0 20 -4 20 -10z m0 -41 c0 -5 -9 -9 -20 -9 -19 0 -26 11 -14 23 8
8 34 -3 34 -14z"/>
<path d="M330 5750 c0 -6 4 -9 9 -5 5 3 12 1 15 -4 3 -5 -3 -11 -14 -14 -12
-3 -20 -14 -20 -26 0 -16 6 -20 30 -18 29 2 31 4 28 37 -2 28 -8 36 -25 38
-13 2 -23 -2 -23 -8z m30 -38 c0 -13 -12 -22 -22 -16 -10 6 -1 24 13 24 5 0 9
-4 9 -8z"/>
<path d="M404 5748 c-4 -6 3 -19 16 -30 l22 -18 -21 0 c-12 0 -19 -4 -16 -10
9 -15 42 -12 49 5 3 8 -4 21 -17 30 -19 13 -17 20 6 16 4 0 7 4 7 9 0 14 -37
13 -46 -2z"/>
<path d="M490 5750 c0 -6 4 -9 9 -5 5 3 12 1 15 -4 3 -5 -3 -11 -14 -14 -12
-3 -20 -14 -20 -26 0 -16 6 -20 30 -18 29 2 31 4 28 37 -2 28 -8 36 -25 38
-13 2 -23 -2 -23 -8z m30 -38 c0 -13 -12 -22 -22 -16 -10 6 -1 24 13 24 5 0 9
-4 9 -8z"/>
<path d="M670 5750 c0 -5 3 -9 8 -9 23 4 24 -3 2 -14 -36 -18 -32 -42 8 -42
26 -1 32 3 32 21 0 36 -11 54 -31 54 -10 0 -19 -4 -19 -10z m30 -38 c0 -13
-12 -22 -22 -16 -10 6 -1 24 13 24 5 0 9 -4 9 -8z"/>
<path d="M793 5753 c-16 -6 -17 -45 -1 -61 14 -14 48 -16 48 -3 0 5 -7 8 -16
7 -9 0 -19 5 -21 12 -3 7 4 12 17 12 15 0 20 5 18 17 -3 18 -24 26 -45 16z
m32 -13 c3 -5 -1 -10 -10 -10 -9 0 -13 5 -10 10 3 6 8 10 10 10 2 0 7 -4 10
-10z"/>
<path d="M870 5718 c0 -21 5 -38 10 -38 6 0 10 14 10 30 0 20 5 30 15 30 10 0
15 -10 15 -30 0 -16 5 -30 11 -30 6 0 9 16 7 38 -3 34 -5 37 -35 37 -32 1 -33
-1 -33 -37z"/>
<path d="M1103 5753 c-18 -7 -16 -48 3 -64 31 -26 70 25 44 56 -13 15 -25 17
-47 8z m37 -33 c0 -11 -7 -20 -15 -20 -8 0 -15 9 -15 20 0 11 7 20 15 20 8 0
15 -9 15 -20z"/>
<path d="M1180 5725 c0 -19 5 -37 10 -40 6 -4 10 7 10 24 0 21 5 31 15 31 10
0 15 -10 15 -30 0 -16 5 -30 11 -30 6 0 9 16 7 38 -3 34 -6 37 -35 39 -31 1
-33 -1 -33 -32z"/>
<path d="M1284 5748 c-5 -7 -2 -9 8 -5 26 9 30 -5 5 -17 -33 -17 -28 -41 11
-43 29 -1 32 2 32 26 0 42 -38 69 -56 39z m36 -36 c0 -13 -12 -22 -22 -16 -10
6 -1 24 13 24 5 0 9 -4 9 -8z"/>
<path d="M1372 5748 c-28 -28 1 -78 35 -62 16 7 15 8 -4 11 -26 5 -33 43 -9
43 8 0 18 5 21 10 9 14 -29 12 -43 -2z"/>
<path d="M1440 5720 c0 -22 5 -40 10 -40 6 0 10 18 10 40 0 22 -4 40 -10 40
-5 0 -10 -18 -10 -40z"/>
<path d="M1493 5753 c-18 -7 -16 -48 3 -64 31 -26 70 25 44 56 -13 15 -25 17
-47 8z m37 -33 c0 -11 -7 -20 -15 -20 -8 0 -15 9 -15 20 0 11 7 20 15 20 8 0
15 -9 15 -20z"/>
<path d="M1570 5719 c0 -21 5 -39 10 -39 6 0 10 14 10 30 0 20 5 30 15 30 10
0 15 -10 15 -30 0 -16 5 -30 11 -30 6 0 9 16 7 38 -3 34 -6 37 -35 39 -32 1
-33 0 -33 -38z"/>
<path d="M1670 5740 c-8 -14 -8 -26 0 -40 11 -20 50 -28 50 -10 0 6 -3 9 -7 9
-19 -3 -33 2 -33 11 0 6 11 10 25 10 27 0 32 9 13 28 -18 18 -36 15 -48 -8z
m35 0 c3 -5 -1 -10 -10 -10 -9 0 -13 5 -10 10 3 6 8 10 10 10 2 0 7 -4 10 -10z"/>
<path d="M1753 5744 c-4 -10 0 -20 10 -26 21 -11 22 -32 2 -24 -8 3 -15 1 -15
-4 0 -6 9 -10 20 -10 27 0 38 29 17 45 -21 15 -22 26 -2 19 8 -4 15 -1 15 5 0
17 -40 13 -47 -5z"/>
<path d="M1820 5684 c0 -8 5 -12 10 -9 6 3 10 10 10 16 0 5 -4 9 -10 9 -5 0
-10 -7 -10 -16z"/>
<path d="M1190 5310 c0 -5 5 -10 10 -10 6 0 10 5 10 10 0 6 -4 10 -10 10 -5 0
-10 -4 -10 -10z"/>
<path d="M1470 5310 c0 -5 5 -10 10 -10 6 0 10 5 10 10 0 6 -4 10 -10 10 -5 0
-10 -4 -10 -10z"/>
<path d="M1991 5303 c-5 -10 -5 -36 -1 -58 7 -36 8 -37 9 -9 0 16 6 35 13 42
9 9 9 12 -2 12 -11 1 -10 5 4 15 17 13 17 15 3 15 -9 0 -20 -8 -26 -17z"/>
<path d="M2420 5302 c0 -13 -7 -18 -22 -18 -20 1 -23 -4 -23 -34 0 -32 3 -35
31 -37 30 -1 31 -1 33 53 1 32 -2 54 -8 54 -6 0 -11 -8 -11 -18z m0 -52 c0
-11 -7 -20 -15 -20 -8 0 -15 9 -15 20 0 11 7 20 15 20 8 0 15 -9 15 -20z"/>
<path d="M762 5298 c-7 -7 -12 -24 -12 -38 0 -62 70 -69 85 -9 11 44 -42 78
-73 47z m53 -38 c0 -16 -6 -26 -19 -28 -25 -5 -39 12 -31 38 10 31 50 24 50
-10z"/>
<path d="M860 5254 c0 -18 5 -36 10 -39 6 -4 10 7 10 24 0 21 5 31 15 31 8 0
15 4 15 9 0 5 -11 9 -25 9 -22 0 -25 -5 -25 -34z"/>
<path d="M933 5275 c-3 -9 -3 -18 0 -21 3 -4 1 -18 -4 -32 -12 -32 1 -47 36
-38 18 5 25 12 23 24 -2 9 -9 18 -16 18 -33 4 -35 6 -16 14 12 4 24 18 27 29
4 17 1 21 -19 21 -14 0 -27 -7 -31 -15z m31 -16 c-3 -5 -10 -7 -15 -3 -5 3 -7
10 -3 15 3 5 10 7 15 3 5 -3 7 -10 3 -15z m11 -59 c-3 -5 -13 -10 -21 -10 -8
0 -14 5 -14 10 0 6 9 10 21 10 11 0 17 -4 14 -10z"/>
<path d="M1020 5281 c0 -6 8 -11 18 -12 13 0 11 -3 -6 -10 -33 -13 -25 -44 11
-44 26 -1 28 2 25 35 -2 28 -8 36 -25 38 -13 2 -23 -1 -23 -7z m30 -39 c0 -13
-12 -22 -22 -16 -10 6 -1 24 13 24 5 0 9 -4 9 -8z"/>
<path d="M1101 5245 l1 -40 9 33 c5 17 16 32 24 32 10 0 15 -11 16 -32 l1 -33
9 30 c10 35 -1 50 -36 50 -23 1 -25 -3 -24 -40z"/>
<path d="M1190 5250 c0 -22 5 -40 10 -40 6 0 10 18 10 40 0 22 -4 40 -10 40
-5 0 -10 -18 -10 -40z"/>
<path d="M1243 5283 c21 -5 21 -13 2 -39 -21 -28 -18 -34 18 -33 17 1 24 3 15
6 -22 5 -22 7 -3 43 l16 30 -33 -1 c-18 -1 -25 -3 -15 -6z"/>
<path d="M1314 5278 c-5 -8 -2 -9 9 -5 9 3 19 2 22 -2 2 -5 -7 -12 -21 -15
-38 -10 -28 -41 14 -43 29 -1 32 2 32 26 0 42 -38 69 -56 39z m36 -38 c0 -5
-7 -10 -16 -10 -8 0 -12 5 -9 10 3 6 10 10 16 10 5 0 9 -4 9 -10z"/>
<path d="M1402 5278 c-28 -28 1 -78 35 -62 16 7 15 8 -4 11 -26 5 -33 43 -8
43 8 0 15 5 15 10 0 14 -23 13 -38 -2z"/>
<path d="M1470 5250 c0 -22 5 -40 10 -40 6 0 10 18 10 40 0 22 -4 40 -10 40
-5 0 -10 -18 -10 -40z"/>
<path d="M1520 5275 c-26 -31 13 -82 44 -56 19 16 21 42 4 59 -16 16 -33 15
-48 -3z m40 -25 c0 -11 -7 -20 -15 -20 -8 0 -15 9 -15 20 0 11 7 20 15 20 8 0
15 -9 15 -20z"/>
<path d="M1600 5248 c0 -21 5 -38 10 -38 6 0 10 14 10 30 0 20 5 30 15 30 10
0 15 -10 15 -30 0 -16 5 -30 11 -30 6 0 9 16 7 38 -3 34 -5 37 -35 37 -32 1
-33 -1 -33 -37z"/>
<path d="M1734 5278 c-4 -6 2 -19 14 -28 22 -18 20 -32 -4 -23 -8 3 -14 0 -14
-6 0 -16 47 -13 54 4 3 8 -4 21 -17 30 -19 13 -17 20 6 16 4 0 7 4 7 9 0 14
-37 13 -46 -2z"/>
<path d="M1810 5248 c0 -23 3 -39 6 -35 9 9 11 77 2 77 -5 0 -8 -19 -8 -42z"/>
<path d="M1850 5249 c0 -21 5 -39 10 -39 6 0 10 14 10 30 0 20 5 30 15 30 10
0 15 -10 15 -30 0 -16 5 -30 11 -30 6 0 9 16 7 38 -3 34 -6 37 -35 39 -32 1
-33 0 -33 -38z"/>
<path d="M2040 5250 c0 -22 2 -40 4 -40 2 0 6 18 8 40 2 22 0 40 -4 40 -5 0
-8 -18 -8 -40z"/>
<path d="M2080 5248 c0 -21 5 -38 10 -38 6 0 10 14 10 30 0 20 5 30 15 30 10
0 15 -10 15 -30 0 -16 5 -30 11 -30 6 0 9 16 7 38 -3 34 -5 37 -35 37 -32 1
-33 -1 -33 -37z"/>
<path d="M2180 5275 c-18 -21 2 -65 30 -65 11 0 20 5 20 10 0 6 -3 9 -7 9 -19
-3 -33 2 -33 11 0 6 11 10 25 10 27 0 32 9 13 28 -16 16 -33 15 -48 -3z m35
-5 c3 -5 -1 -10 -10 -10 -9 0 -13 5 -10 10 3 6 8 10 10 10 2 0 7 -4 10 -10z"/>
<path d="M2264 5278 c-4 -6 2 -19 14 -28 22 -18 20 -32 -4 -23 -8 3 -14 0 -14
-6 0 -6 11 -11 25 -11 18 0 25 5 25 20 0 11 -7 23 -15 26 -8 4 -15 10 -15 15
0 4 7 6 15 3 8 -4 15 -1 15 5 0 15 -37 14 -46 -1z"/>
<path d="M2472 5278 c-25 -25 -6 -68 30 -68 10 0 18 4 18 9 0 5 -7 8 -16 7 -9
0 -19 5 -21 12 -3 7 5 12 21 12 14 0 26 4 26 8 0 12 -22 32 -35 32 -6 0 -16
-5 -23 -12z m33 -8 c3 -5 -1 -10 -10 -10 -9 0 -13 5 -10 10 3 6 8 10 10 10 2
0 7 -4 10 -10z"/>
<path d="M750 5063 c0 -31 2 -54 5 -51 9 8 11 108 3 108 -5 0 -8 -25 -8 -57z"/>
<path d="M1840 5110 c0 -5 5 -10 10 -10 6 0 10 5 10 10 0 6 -4 10 -10 10 -5 0
-10 -4 -10 -10z"/>
<path d="M1930 5101 c0 -11 -6 -18 -16 -17 -9 0 -21 -7 -28 -16 -15 -25 4 -53
38 -53 25 -1 26 1 26 52 0 29 -4 53 -10 53 -5 0 -10 -8 -10 -19z m3 -37 c9
-10 -4 -34 -19 -34 -8 0 -14 9 -14 20 0 19 19 27 33 14z"/>
<path d="M2110 5101 c0 -11 -6 -18 -16 -17 -9 0 -21 -7 -28 -16 -15 -25 4 -53
38 -53 25 -1 26 1 26 52 0 29 -4 53 -10 53 -5 0 -10 -8 -10 -19z m-2 -53 c-2
-13 -7 -23 -13 -23 -5 0 -11 10 -13 23 -2 15 2 22 13 22 11 0 15 -7 13 -22z"/>
<path d="M1656 5092 c-10 -16 10 -77 27 -80 21 -4 23 14 2 22 -20 7 -19 35 1
43 13 5 13 7 2 14 -16 11 -25 11 -32 1z"/>
<path d="M790 5063 c0 -39 11 -51 43 -50 24 2 27 6 27 40 0 20 -4 37 -10 37
-5 0 -10 -13 -10 -30 0 -20 -5 -30 -15 -30 -10 0 -15 10 -15 30 0 17 -4 30
-10 30 -5 0 -10 -12 -10 -27z"/>
<path d="M888 5065 c-15 -32 9 -63 39 -50 16 8 16 9 -4 12 -30 6 -32 43 -3 43
11 0 20 5 20 10 0 21 -41 9 -52 -15z"/>
<path d="M960 5048 c0 -21 5 -38 10 -38 6 0 10 14 10 30 0 20 5 30 15 30 8 0
15 4 15 9 0 5 -11 8 -25 7 -22 -1 -25 -6 -25 -38z"/>
<path d="M1030 5071 c-15 -29 4 -63 33 -59 18 2 22 10 22 38 0 28 -4 36 -22
38 -14 2 -26 -4 -33 -17z m45 -21 c0 -8 -8 -16 -17 -18 -13 -2 -18 3 -18 18 0
15 5 20 18 18 9 -2 17 -10 17 -18z"/>
<path d="M1198 5065 c-8 -19 -8 -28 2 -40 14 -17 50 -21 50 -5 0 6 -9 10 -20
10 -13 0 -20 7 -20 20 0 13 7 20 20 20 11 0 20 5 20 10 0 21 -41 9 -52 -15z"/>
<path d="M1274 5076 c-11 -28 1 -61 22 -64 31 -4 50 23 36 53 -13 27 -49 34
-58 11z m46 -26 c0 -11 -6 -20 -14 -20 -18 0 -29 16 -21 30 11 18 35 11 35
-10z"/>
<path d="M1360 5048 c0 -21 5 -38 10 -38 6 0 10 14 10 30 0 20 5 30 15 30 10
0 15 -10 15 -30 0 -16 5 -30 11 -30 6 0 9 16 7 38 -3 34 -5 37 -35 37 -32 1
-33 -1 -33 -37z"/>
<path d="M1500 5080 c0 -7 7 -10 15 -7 8 4 17 2 20 -3 3 -5 -5 -10 -17 -12
-36 -5 -31 -43 5 -43 26 -1 28 2 25 35 -2 28 -8 36 -25 38 -13 2 -23 -2 -23
-8z m35 -40 c-3 -5 -10 -10 -16 -10 -5 0 -9 5 -9 10 0 6 7 10 16 10 8 0 12 -4
9 -10z"/>
<path d="M1592 5081 c-8 -5 -12 -21 -10 -37 2 -21 9 -30 26 -32 27 -4 29 14 2
21 -11 3 -20 10 -20 17 0 7 9 14 20 17 11 3 20 9 20 14 0 11 -21 11 -38 0z"/>
<path d="M1720 5050 c0 -22 3 -40 8 -40 4 0 7 18 7 40 0 22 -3 40 -7 40 -5 0
-8 -18 -8 -40z"/>
<path d="M1764 5053 c17 -49 32 -52 46 -8 14 44 5 60 -11 19 l-11 -29 -10 28
c-5 15 -14 27 -18 27 -5 0 -3 -17 4 -37z"/>
<path d="M1840 5050 c0 -22 5 -40 10 -40 6 0 10 18 10 40 0 22 -4 40 -10 40
-5 0 -10 -18 -10 -40z"/>
<path d="M1990 5080 c0 -6 4 -9 9 -5 5 3 12 1 15 -4 3 -5 -3 -11 -14 -14 -12
-3 -20 -14 -20 -26 0 -16 6 -20 30 -18 29 2 31 4 28 37 -2 28 -8 36 -25 38
-13 2 -23 -2 -23 -8z m30 -38 c0 -13 -12 -22 -22 -16 -10 6 -1 24 13 24 5 0 9
-4 9 -8z"/>
<path d="M2160 5075 c-18 -21 2 -65 30 -65 11 0 20 5 20 10 0 6 -3 9 -7 9 -19
-3 -33 2 -33 11 0 6 11 10 25 10 28 0 34 24 9 34 -23 9 -30 8 -44 -9z m35 -5
c3 -5 -1 -10 -10 -10 -9 0 -13 5 -10 10 3 6 8 10 10 10 2 0 7 -4 10 -10z"/>
<path d="M2243 5074 c-4 -10 0 -20 10 -26 21 -11 22 -32 2 -24 -8 3 -15 1 -15
-4 0 -6 9 -10 20 -10 27 0 38 29 17 45 -21 15 -22 26 -2 19 8 -4 15 -1 15 5 0
17 -40 13 -47 -5z"/>
<path d="M1116 5013 c-6 -14 -5 -15 5 -6 7 7 10 15 7 18 -3 3 -9 -2 -12 -12z"/>
<path d="M1690 4900 c0 -5 5 -10 10 -10 6 0 10 5 10 10 0 6 -4 10 -10 10 -5 0
-10 -4 -10 -10z"/>
<path d="M750 4860 c-13 -25 5 -64 26 -56 9 3 14 -1 14 -14 0 -11 5 -20 10
-20 6 0 10 24 10 53 0 49 -2 53 -25 55 -16 1 -28 -5 -35 -18z m43 -14 c7 -16
-1 -26 -20 -26 -7 0 -13 9 -13 20 0 23 25 27 33 6z"/>
<path d="M842 4843 c3 -35 6 -38 36 -40 31 -1 32 0 32 38 0 21 -4 39 -10 39
-5 0 -10 -13 -10 -30 0 -20 -5 -30 -15 -30 -10 0 -15 10 -15 30 0 17 -5 30
-11 30 -6 0 -9 -16 -7 -37z"/>
<path d="M942 4868 c-25 -25 -6 -68 30 -68 10 0 18 5 18 10 0 6 -7 10 -16 8
-10 -2 -19 3 -21 10 -3 7 5 12 21 12 14 0 26 4 26 8 0 12 -22 32 -35 32 -6 0
-16 -5 -23 -12z m33 -8 c3 -5 -1 -10 -10 -10 -9 0 -13 5 -10 10 3 6 8 10 10
10 2 0 7 -4 10 -10z"/>
<path d="M1057 4873 c-6 -12 -2 -91 5 -99 4 -3 19 -4 33 0 29 7 34 36 6 36
-27 0 -35 17 -12 23 10 2 20 14 24 26 4 18 1 21 -23 21 -16 0 -31 -3 -33 -7z
m35 -18 c0 -5 -5 -11 -11 -13 -6 -2 -11 4 -11 13 0 9 5 15 11 13 6 -2 11 -8
11 -13z m8 -65 c0 -5 -6 -10 -14 -10 -8 0 -18 5 -21 10 -3 6 3 10 14 10 12 0
21 -4 21 -10z"/>
<path d="M1147 4874 c-13 -14 -7 -62 9 -68 23 -9 44 -7 44 3 0 5 -7 8 -16 7
-9 0 -19 5 -21 12 -3 7 4 12 17 12 15 0 20 5 18 18 -3 17 -38 29 -51 16z m38
-14 c3 -5 -1 -10 -9 -10 -9 0 -16 5 -16 10 0 6 4 10 9 10 6 0 13 -4 16 -10z"/>
<path d="M1231 4836 c1 -37 2 -38 8 -11 9 43 38 45 44 3 4 -28 4 -27 3 7 -1
36 -3 40 -28 41 -26 1 -28 -1 -27 -40z"/>
<path d="M1327 4874 c-13 -14 -7 -62 9 -68 24 -9 44 -7 44 4 0 6 -7 10 -16 8
-10 -2 -19 3 -21 10 -3 7 4 12 17 12 15 0 20 5 18 18 -3 17 -38 29 -51 16z
m38 -14 c3 -5 -1 -10 -9 -10 -9 0 -16 5 -16 10 0 6 4 10 9 10 6 0 13 -4 16
-10z"/>
<path d="M1411 4835 c2 -31 3 -34 6 -12 3 16 11 31 19 34 21 8 17 19 -6 19
-17 0 -20 -6 -19 -41z"/>
<path d="M1480 4870 c0 -6 4 -9 9 -5 5 3 12 1 15 -4 3 -5 -3 -11 -14 -14 -12
-3 -20 -14 -20 -26 0 -16 6 -20 30 -18 29 2 31 4 28 37 -2 28 -8 36 -25 38
-13 2 -23 -2 -23 -8z m30 -40 c0 -5 -7 -10 -16 -10 -8 0 -12 5 -9 10 3 6 10
10 16 10 5 0 9 -4 9 -10z"/>
<path d="M1560 4838 c0 -21 5 -38 11 -38 5 0 7 5 4 10 -10 16 5 50 21 50 9 0
14 -11 14 -30 0 -16 4 -30 10 -30 9 0 3 58 -7 70 -3 3 -16 5 -29 5 -21 1 -24
-3 -24 -37z"/>
<path d="M1690 4840 c0 -22 5 -40 10 -40 6 0 10 18 10 40 0 22 -4 40 -10 40
-5 0 -10 -18 -10 -40z"/>
<path d="M1741 4836 c1 -38 2 -39 8 -11 3 17 13 30 21 30 8 0 18 -13 22 -30 6
-26 6 -25 5 10 -2 36 -5 40 -29 41 -26 1 -28 -1 -27 -40z"/>
<path d="M1837 4873 c-3 -5 -5 -19 -6 -33 0 -14 -2 -34 -3 -45 -2 -16 3 -20
27 -20 20 0 31 5 33 18 2 11 -3 17 -17 17 -11 0 -23 5 -26 10 -3 6 1 10 9 10
13 0 36 28 36 44 0 9 -48 7 -53 -1z m27 -24 c-3 -5 -10 -7 -15 -3 -5 3 -7 10
-3 15 3 5 10 7 15 3 5 -3 7 -10 3 -15z m11 -59 c-3 -5 -13 -10 -21 -10 -8 0
-14 5 -14 10 0 6 9 10 21 10 11 0 17 -4 14 -10z"/>
<path d="M1910 4839 c0 -22 5 -39 10 -39 6 0 10 11 10 25 0 14 7 28 15 31 23
9 18 22 -10 22 -22 0 -25 -5 -25 -39z"/>
<path d="M1980 4860 c-8 -14 -8 -26 0 -40 11 -20 50 -28 50 -10 0 6 -3 9 -7 9
-19 -3 -33 2 -33 11 0 6 11 10 25 10 28 0 34 24 9 34 -25 10 -33 7 -44 -14z
m35 0 c3 -5 -1 -10 -10 -10 -9 0 -13 5 -10 10 3 6 8 10 10 10 2 0 7 -4 10 -10z"/>
<path d="M2063 4864 c-4 -10 0 -20 10 -26 21 -11 22 -29 2 -22 -8 4 -15 1 -15
-5 0 -6 9 -11 20 -11 27 0 38 29 17 45 -21 15 -22 26 -2 19 8 -4 15 -1 15 5 0
17 -40 13 -47 -5z"/>
<path d="M2142 4868 c-28 -28 -1 -75 38 -63 14 4 20 15 20 35 0 36 -33 53 -58
28z m38 -28 c0 -11 -7 -20 -15 -20 -8 0 -15 9 -15 20 0 11 7 20 15 20 8 0 15
-9 15 -20z"/>
<path d="M2223 4864 c-4 -10 0 -20 10 -26 21 -11 22 -32 2 -24 -8 3 -15 1 -15
-4 0 -6 9 -10 20 -10 29 0 38 30 15 46 -17 13 -17 14 -2 14 9 0 17 5 17 10 0
17 -40 11 -47 -6z"/>
<path d="M2295 4810 c3 -5 8 -10 11 -10 2 0 4 5 4 10 0 6 -5 10 -11 10 -5 0
-7 -4 -4 -10z"/>
<path d="M1040 4692 c0 -13 -7 -18 -22 -18 -20 1 -23 -4 -23 -34 0 -32 2 -35
33 -37 l32 -1 0 54 c0 30 -4 54 -10 54 -5 0 -10 -8 -10 -18z m0 -52 c0 -11 -7
-20 -15 -20 -8 0 -15 9 -15 20 0 11 7 20 15 20 8 0 15 -9 15 -20z"/>
<path d="M1330 4700 c0 -5 5 -10 10 -10 6 0 10 5 10 10 0 6 -4 10 -10 10 -5 0
-10 -4 -10 -10z"/>
<path d="M1371 4656 c1 -52 2 -53 30 -54 23 0 30 5 35 24 9 35 -2 57 -26 51
-15 -4 -20 0 -20 14 0 10 -4 19 -10 19 -5 0 -9 -24 -9 -54z m49 -16 c0 -11 -7
-20 -15 -20 -8 0 -15 9 -15 20 0 11 7 20 15 20 8 0 15 -9 15 -20z"/>
<path d="M1810 4691 c0 -11 -6 -18 -16 -17 -9 0 -21 -7 -28 -16 -15 -25 4 -53
38 -53 25 -1 26 1 26 52 0 29 -4 53 -10 53 -5 0 -10 -8 -10 -19z m-2 -53 c-2
-13 -7 -23 -13 -23 -5 0 -11 10 -13 23 -2 15 2 22 13 22 11 0 15 -7 13 -22z"/>
<path d="M1980 4700 c0 -5 5 -10 10 -10 6 0 10 5 10 10 0 6 -4 10 -10 10 -5 0
-10 -4 -10 -10z"/>
<path d="M2070 4691 c0 -11 -6 -18 -16 -17 -9 0 -21 -7 -28 -16 -15 -25 4 -53
38 -53 25 -1 26 1 26 52 0 29 -4 53 -10 53 -5 0 -10 -8 -10 -19z m0 -51 c0
-11 -7 -20 -15 -20 -8 0 -15 9 -15 20 0 11 7 20 15 20 8 0 15 -9 15 -20z"/>
<path d="M2340 4691 c0 -11 -6 -18 -16 -17 -9 0 -21 -7 -28 -16 -15 -25 4 -53
38 -53 25 -1 26 1 26 52 0 29 -4 53 -10 53 -5 0 -10 -8 -10 -19z m5 -51 c0 -8
-8 -16 -17 -18 -13 -2 -18 3 -18 18 0 15 5 20 18 18 9 -2 17 -10 17 -18z"/>
<path d="M750 4650 c0 -27 4 -50 8 -50 4 0 6 16 4 35 -2 19 0 35 5 35 5 0 17
-16 26 -35 9 -19 21 -35 27 -35 11 0 11 0 14 50 3 51 -8 62 -14 15 l-6 -40
-19 38 c-27 53 -45 48 -45 -13z"/>
<path d="M1206 4683 c-8 -8 -8 -47 0 -67 7 -17 34 -22 34 -6 0 6 -4 10 -10 10
-14 0 -12 48 2 52 8 3 6 6 -4 10 -9 4 -19 4 -22 1z"/>
<path d="M872 4668 c-28 -28 -1 -75 38 -63 33 11 21 75 -15 75 -6 0 -16 -5
-23 -12z m38 -28 c0 -11 -7 -20 -15 -20 -8 0 -15 9 -15 20 0 11 7 20 15 20 8
0 15 -9 15 -20z"/>
<path d="M1093 4640 c0 -25 2 -35 4 -22 2 12 2 32 0 45 -2 12 -4 2 -4 -23z"/>
<path d="M1124 4668 c-4 -6 2 -19 14 -28 23 -19 20 -32 -6 -23 -10 4 -13 2 -8
-5 9 -15 43 -15 52 0 4 6 -3 19 -16 30 -17 14 -19 18 -6 18 9 0 16 5 16 10 0
14 -37 13 -46 -2z"/>
<path d="M1260 4639 c0 -22 5 -39 10 -39 6 0 10 14 10 30 0 20 5 30 15 30 8 0
15 4 15 9 0 5 -11 9 -25 9 -22 0 -25 -5 -25 -39z"/>
<path d="M1330 4640 c0 -22 5 -40 10 -40 6 0 10 18 10 40 0 22 -4 40 -10 40
-5 0 -10 -18 -10 -40z"/>
<path d="M1474 4645 c1 -36 3 -40 29 -41 25 -1 27 2 27 39 0 41 -12 46 -14 5
0 -13 -8 -24 -18 -26 -12 -2 -18 6 -21 30 -4 28 -4 27 -3 -7z"/>
<path d="M1567 4638 c12 -31 14 -43 5 -46 -15 -5 -16 -22 -2 -22 13 0 52 89
47 104 -3 6 -10 -2 -17 -19 l-12 -30 -10 28 c-5 15 -14 27 -19 27 -5 0 -1 -19
8 -42z"/>
<path d="M1652 4668 c-15 -15 -15 -41 0 -56 14 -14 48 -16 48 -3 0 5 -7 8 -16
7 -9 0 -19 5 -21 12 -3 7 4 12 17 12 15 0 20 5 18 17 -4 22 -29 28 -46 11z
m33 -8 c3 -5 -1 -10 -10 -10 -9 0 -13 5 -10 10 3 6 8 10 10 10 2 0 7 -4 10
-10z"/>
<path d="M1863 4640 c0 -25 2 -35 4 -22 2 12 2 32 0 45 -2 12 -4 2 -4 -23z"/>
<path d="M1904 4643 c17 -49 32 -52 46 -8 14 44 5 60 -11 19 l-11 -29 -10 28
c-5 15 -14 27 -18 27 -5 0 -3 -17 4 -37z"/>
<path d="M1980 4640 c0 -22 5 -40 10 -40 6 0 10 18 10 40 0 22 -4 40 -10 40
-5 0 -10 -18 -10 -40z"/>
<path d="M2120 4660 c-8 -14 -8 -26 0 -40 11 -20 50 -28 50 -10 0 6 -3 9 -7 9
-19 -3 -33 2 -33 11 0 6 11 10 25 10 28 0 34 24 9 34 -25 10 -33 7 -44 -14z
m35 0 c3 -5 -1 -10 -10 -10 -9 0 -13 5 -10 10 3 6 8 10 10 10 2 0 7 -4 10 -10z"/>
<path d="M2200 4639 c0 -21 5 -39 10 -39 6 0 10 14 10 30 0 20 5 30 15 30 10
0 15 -10 15 -30 0 -16 5 -30 11 -30 6 0 9 16 7 38 -3 34 -6 37 -35 39 -32 1
-33 0 -33 -38z"/>
<path d="M2394 4666 c-16 -42 24 -82 53 -54 14 14 15 22 5 43 -13 27 -49 34
-58 11z m46 -26 c0 -11 -6 -20 -13 -20 -19 0 -27 10 -20 26 8 21 33 17 33 -6z"/>
<path d="M2483 4664 c-4 -10 0 -20 10 -26 21 -11 22 -32 2 -24 -8 3 -15 1 -15
-4 0 -6 9 -10 20 -10 27 0 38 30 17 42 -22 12 -22 29 0 21 11 -4 14 -3 9 5
-10 17 -36 15 -43 -4z"/>
<path d="M2513 4185 c0 -33 2 -45 4 -27 2 18 2 45 0 60 -2 15 -4 0 -4 -33z"/>
<path d="M1480 4180 c0 -47 2 -50 25 -50 14 0 25 5 25 10 0 6 -7 10 -15 10 -8
0 -15 5 -15 10 0 6 7 10 15 10 8 0 15 5 15 10 0 6 -7 10 -15 10 -8 0 -15 5
-15 10 0 6 7 10 15 10 8 0 15 5 15 10 0 6 -11 10 -25 10 -23 0 -25 -3 -25 -50z"/>
<path d="M2603 4218 c-30 -39 -12 -88 33 -88 20 0 24 5 24 30 0 20 -5 30 -15
30 -8 0 -15 -4 -15 -10 0 -5 5 -10 10 -10 6 0 10 -4 10 -10 0 -16 -37 -12 -44
5 -9 25 4 45 30 45 13 0 24 5 24 10 0 14 -46 12 -57 -2z"/>
<path d="M1560 4168 c0 -21 4 -38 9 -38 5 0 9 6 8 13 -1 33 4 48 16 45 6 -3
12 -14 12 -25 0 -12 3 -25 8 -29 4 -4 7 7 7 24 0 22 5 32 15 32 10 0 15 -10
15 -30 0 -16 5 -30 11 -30 6 0 9 16 7 38 l-3 37 -52 0 -53 0 0 -37z"/>
<path d="M1700 4153 c0 -29 5 -53 10 -53 6 0 10 9 10 19 0 11 6 18 16 17 9 0
21 7 28 17 15 24 -4 52 -38 52 -25 1 -26 -1 -26 -52z m50 17 c0 -11 -7 -20
-15 -20 -8 0 -15 9 -15 20 0 11 7 20 15 20 8 0 15 -9 15 -20z"/>
<path d="M1790 4168 c0 -21 5 -38 10 -38 6 0 10 14 10 30 0 20 5 30 15 30 8 0
15 4 15 9 0 5 -11 8 -25 7 -22 -1 -25 -6 -25 -38z"/>
<path d="M1860 4195 c-18 -21 2 -65 30 -65 11 0 20 5 20 10 0 6 -3 9 -7 9 -19
-3 -33 2 -33 11 0 6 11 10 25 10 27 0 32 9 13 28 -16 16 -33 15 -48 -3z m35
-5 c3 -5 -1 -10 -10 -10 -9 0 -13 5 -10 10 3 6 8 10 10 10 2 0 7 -4 10 -10z"/>
<path d="M1943 4194 c-4 -10 0 -20 10 -26 21 -11 22 -32 2 -24 -8 3 -15 1 -15
-4 0 -6 9 -10 20 -10 27 0 38 29 17 45 -21 15 -22 26 -2 19 8 -4 15 -1 15 5 0
17 -40 13 -47 -5z"/>
<path d="M2020 4201 c0 -6 10 -11 23 -12 21 -1 21 -1 -3 -8 -36 -10 -34 -46 3
-46 26 -1 28 2 25 35 -2 28 -8 36 -25 38 -13 2 -23 -1 -23 -7z m30 -40 c0 -6
-4 -13 -10 -16 -5 -3 -10 1 -10 9 0 9 5 16 10 16 6 0 10 -4 10 -9z"/>
<path d="M2134 4199 c-4 -7 4 -20 17 -30 21 -16 20 -24 -3 -20 -5 0 -8 -3 -8
-9 0 -14 37 -13 46 2 4 6 -3 19 -16 30 -20 16 -19 23 3 19 4 0 7 4 7 9 0 14
-37 13 -46 -1z"/>
<path d="M2214 4196 c-11 -28 1 -61 22 -64 31 -4 50 23 36 53 -13 27 -49 34
-58 11z m46 -26 c0 -11 -6 -20 -14 -20 -18 0 -29 16 -21 30 11 18 35 11 35
-10z"/>
<path d="M2312 4201 c-8 -5 -12 -21 -10 -37 2 -21 9 -30 26 -32 27 -4 29 14 2
21 -11 3 -20 10 -20 17 0 7 9 14 20 17 11 3 20 9 20 14 0 11 -21 11 -38 0z"/>
<path d="M2383 4170 c0 -25 2 -35 4 -22 2 12 2 32 0 45 -2 12 -4 2 -4 -23z"/>
<path d="M2424 4198 c-5 -8 -2 -9 9 -5 9 3 19 2 22 -2 2 -5 -7 -12 -21 -15
-38 -10 -28 -41 14 -41 26 -1 32 3 32 21 0 12 -3 29 -6 38 -7 19 -40 21 -50 4z
m36 -38 c0 -5 -7 -10 -16 -10 -8 0 -12 5 -9 10 3 6 10 10 16 10 5 0 9 -4 9
-10z"/>
<path d="M2690 4169 c0 -22 5 -39 10 -39 6 0 10 11 10 25 0 14 7 28 15 31 23
9 18 22 -10 22 -22 0 -25 -5 -25 -39z"/>
<path d="M2764 4198 c-5 -8 -2 -9 9 -5 9 3 19 2 22 -2 2 -5 -7 -12 -21 -15
-35 -9 -28 -41 10 -42 31 -1 41 14 32 51 -7 26 -39 35 -52 13z m36 -36 c0 -13
-12 -22 -22 -16 -10 6 -1 24 13 24 5 0 9 -4 9 -8z"/>
<path d="M2851 4166 c1 -37 2 -38 8 -12 9 41 31 46 31 7 0 -17 5 -31 10 -31 6
0 10 14 10 30 0 20 5 30 15 30 10 0 15 -10 15 -30 0 -16 5 -30 11 -30 6 0 9
16 7 38 l-3 37 -52 1 -53 1 1 -41z"/>
<path d="M2992 4198 c-25 -25 -6 -68 30 -68 10 0 18 5 18 10 0 6 -3 9 -7 9
-19 -3 -33 2 -33 11 0 6 11 10 25 10 14 0 25 4 25 8 0 12 -22 32 -35 32 -6 0
-16 -5 -23 -12z m33 -8 c3 -5 -1 -10 -10 -10 -9 0 -13 5 -10 10 3 6 8 10 10
10 2 0 7 -4 10 -10z"/>
<path d="M3083 4203 c-19 -7 -16 -60 3 -67 23 -9 44 -7 44 3 0 5 -7 8 -16 7
-9 0 -19 5 -21 12 -3 7 4 12 17 12 15 0 20 5 18 17 -3 18 -24 26 -45 16z m32
-13 c3 -5 -1 -10 -10 -10 -9 0 -13 5 -10 10 3 6 8 10 10 10 2 0 7 -4 10 -10z"/>
<path d="M3160 4168 c0 -21 4 -38 8 -38 4 0 8 12 7 27 0 18 6 29 18 31 13 3
17 -3 17 -27 0 -17 4 -31 9 -31 9 0 5 59 -5 69 -3 3 -17 6 -30 6 -21 1 -24 -3
-24 -37z"/>
<path d="M2300 4030 c0 -5 5 -10 10 -10 6 0 10 5 10 10 0 6 -4 10 -10 10 -5 0
-10 -4 -10 -10z"/>
<path d="M2560 3980 c0 -27 5 -50 10 -50 6 0 10 23 10 50 0 28 -4 50 -10 50
-5 0 -10 -22 -10 -50z"/>
<path d="M2238 4008 c-8 -25 7 -73 25 -76 9 -2 17 1 17 7 0 6 -4 11 -10 11
-14 0 -13 37 1 46 8 4 7 9 -2 15 -19 12 -26 11 -31 -3z"/>
<path d="M2300 3970 c0 -22 5 -40 10 -40 6 0 10 18 10 40 0 22 -4 40 -10 40
-5 0 -10 -18 -10 -40z"/>
<path d="M2340 3954 c0 -30 5 -54 10 -54 6 0 10 9 10 20 0 12 5 17 13 14 19
-7 39 20 35 48 -2 18 -10 23 -35 25 l-33 1 0 -54z m50 16 c0 -11 -7 -20 -15
-20 -8 0 -15 9 -15 20 0 11 7 20 15 20 8 0 15 -9 15 -20z"/>
<path d="M2440 3995 c-26 -31 13 -82 44 -56 21 17 21 57 0 65 -23 9 -30 8 -44
-9z m40 -25 c0 -11 -7 -20 -15 -20 -8 0 -15 9 -15 20 0 11 7 20 15 20 8 0 15
-9 15 -20z"/>
<path d="M2610 3940 c0 -5 5 -10 10 -10 6 0 10 5 10 10 0 6 -4 10 -10 10 -5 0
-10 -4 -10 -10z"/>
<path d="M1720 3777 c0 -53 1 -54 30 -55 24 0 31 4 36 24 7 28 -12 58 -33 50
-8 -3 -13 2 -13 14 0 11 -4 20 -10 20 -5 0 -10 -24 -10 -53z m50 -17 c0 -11
-7 -20 -15 -20 -8 0 -15 9 -15 20 0 11 7 20 15 20 8 0 15 -9 15 -20z"/>
<path d="M2345 3820 c-3 -5 -2 -10 4 -10 5 0 13 5 16 10 3 6 2 10 -4 10 -5 0
-13 -4 -16 -10z"/>
<path d="M2490 3820 c0 -5 5 -10 10 -10 6 0 10 5 10 10 0 6 -4 10 -10 10 -5 0
-10 -4 -10 -10z"/>
<path d="M3320 3820 c0 -5 5 -10 10 -10 6 0 10 5 10 10 0 6 -4 10 -10 10 -5 0
-10 -4 -10 -10z"/>
<path d="M1480 3769 c0 -27 4 -48 8 -45 5 3 7 20 5 38 -4 33 -4 33 14 12 10
-12 23 -30 29 -40 16 -26 25 -14 29 40 3 55 -12 63 -17 9 l-3 -38 -20 38 c-27
53 -45 48 -45 -14z"/>
<path d="M1602 3788 c-28 -28 -1 -75 38 -63 14 4 20 15 20 35 0 36 -33 53 -58
28z m38 -28 c0 -11 -7 -20 -15 -20 -8 0 -15 9 -15 20 0 11 7 20 15 20 8 0 15
-9 15 -20z"/>
<path d="M1810 3773 c0 -39 11 -51 43 -50 24 2 27 6 27 40 0 20 -4 37 -10 37
-5 0 -10 -13 -10 -30 0 -20 -5 -30 -15 -30 -10 0 -15 10 -15 30 0 17 -4 30
-10 30 -5 0 -10 -12 -10 -27z"/>
<path d="M1904 3788 c-4 -6 2 -19 14 -28 23 -19 20 -32 -6 -23 -13 5 -14 3 -6
-6 7 -7 20 -11 30 -9 27 5 29 35 4 43 -11 3 -18 11 -14 16 3 5 10 7 15 4 5 -4
9 -1 9 4 0 15 -37 14 -46 -1z"/>
<path d="M1984 3786 c-11 -29 1 -61 24 -64 27 -4 29 14 2 21 -23 6 -17 37 6
37 8 0 14 5 14 10 0 15 -40 12 -46 -4z"/>
<path d="M2060 3791 c0 -6 3 -10 8 -10 23 4 33 -4 12 -10 -36 -10 -34 -46 3
-47 26 -1 28 1 25 35 -2 29 -8 37 -25 39 -13 2 -23 -1 -23 -7z m40 -35 c0 -2
-7 -9 -15 -16 -12 -10 -15 -10 -15 4 0 9 7 16 15 16 8 0 15 -2 15 -4z"/>
<path d="M2181 3756 c1 -38 2 -39 8 -11 7 35 38 43 33 8 -2 -12 2 -24 8 -28 6
-4 10 6 10 24 0 21 5 31 15 31 10 0 15 -10 15 -30 0 -16 5 -30 11 -30 6 0 9
16 7 38 l-3 37 -52 1 -53 1 1 -41z"/>
<path d="M2330 3790 c0 -6 4 -9 9 -5 5 3 12 1 15 -4 3 -5 -3 -11 -14 -14 -12
-3 -20 -14 -20 -26 0 -16 6 -20 30 -18 29 2 31 4 28 37 -2 28 -8 36 -25 38
-13 2 -23 -2 -23 -8z m30 -38 c0 -13 -12 -22 -22 -16 -10 6 -1 24 13 24 5 0 9
-4 9 -8z"/>
<path d="M2410 3780 c8 -14 8 -26 0 -40 -13 -24 5 -28 18 -4 8 15 10 15 15 0
4 -9 11 -16 17 -16 8 0 8 6 0 20 -8 14 -8 26 0 40 11 21 1 27 -17 9 -8 -8 -13
-8 -17 0 -13 20 -27 12 -16 -9z"/>
<path d="M2490 3760 c0 -22 5 -40 10 -40 6 0 10 18 10 40 0 22 -4 40 -10 40
-5 0 -10 -18 -10 -40z"/>
<path d="M2541 3756 c1 -37 2 -38 8 -12 9 41 31 46 31 7 0 -17 5 -31 10 -31 6
0 10 14 10 30 0 20 5 30 15 30 10 0 15 -10 15 -30 0 -16 5 -30 11 -30 6 0 9
16 7 38 l-3 37 -52 1 -53 1 1 -41z"/>
<path d="M2684 3788 c-5 -8 -2 -9 9 -5 9 3 19 2 22 -2 2 -5 -7 -12 -21 -15
-37 -10 -28 -41 11 -41 24 0 31 5 33 23 6 39 -36 70 -54 40z m36 -38 c0 -5 -7
-10 -16 -10 -8 0 -12 5 -9 10 3 6 10 10 16 10 5 0 9 -4 9 -10z"/>
<path d="M2805 3788 c-10 -32 1 -62 25 -69 22 -6 23 -7 6 -14 -12 -5 -21 -3
-26 6 -5 7 -12 10 -16 6 -13 -12 12 -29 37 -25 35 5 36 34 2 43 l-28 7 26 10
c15 5 29 18 32 28 4 17 0 20 -24 20 -16 0 -31 -6 -34 -12z m35 -13 c0 -8 -4
-15 -9 -15 -13 0 -22 16 -14 24 11 11 23 6 23 -9z"/>
<path d="M2890 3790 c0 -6 4 -9 9 -5 5 3 12 1 15 -4 3 -5 -4 -11 -15 -14 -32
-8 -21 -42 14 -42 26 -1 28 2 25 35 -2 28 -8 36 -25 38 -13 2 -23 -2 -23 -8z
m40 -34 c0 -2 -7 -9 -15 -16 -12 -10 -15 -10 -15 4 0 9 7 16 15 16 8 0 15 -2
15 -4z"/>
<path d="M2970 3758 c0 -21 5 -38 10 -38 6 0 10 14 10 30 0 20 5 30 15 30 10
0 15 -10 15 -30 0 -16 5 -30 11 -30 6 0 9 16 7 38 -3 34 -5 37 -35 37 -32 1
-33 -1 -33 -37z"/>
<path d="M3070 3789 c0 -6 7 -9 15 -6 8 4 17 2 20 -3 3 -5 -5 -10 -17 -12 -15
-2 -23 -10 -23 -23 0 -16 7 -20 30 -20 32 0 40 20 22 58 -8 19 -47 24 -47 6z
m40 -39 c0 -5 -7 -10 -15 -10 -8 0 -15 5 -15 10 0 6 7 10 15 10 8 0 15 -4 15
-10z"/>
<path d="M3150 3759 c0 -21 5 -39 10 -39 6 0 10 14 10 30 0 20 5 30 15 30 10
0 15 -10 15 -30 0 -16 5 -30 11 -30 6 0 9 16 7 38 -3 34 -6 37 -35 39 -32 1
-33 0 -33 -38z"/>
<path d="M3248 3775 c-8 -19 -8 -28 2 -40 14 -17 50 -21 50 -5 0 6 -9 10 -20
10 -13 0 -20 7 -20 20 0 13 7 20 20 20 11 0 20 5 20 10 0 21 -41 9 -52 -15z"/>
<path d="M3320 3760 c0 -22 5 -40 10 -40 6 0 10 18 10 40 0 22 -4 40 -10 40
-5 0 -10 -18 -10 -40z"/>
<path d="M3370 3790 c0 -7 7 -10 15 -7 8 4 17 2 20 -3 3 -5 -5 -10 -17 -12
-36 -5 -31 -43 5 -44 26 -1 28 1 25 35 -2 29 -8 37 -25 39 -13 2 -23 -2 -23
-8z m38 -41 c-2 -6 -8 -10 -13 -10 -5 0 -11 4 -13 10 -2 6 4 11 13 11 9 0 15
-5 13 -11z"/>
<path d="M3450 3725 c0 -8 2 -15 4 -15 2 0 6 7 10 15 3 8 1 15 -4 15 -6 0 -10
-7 -10 -15z"/>
<path d="M1770 3602 c0 -13 -7 -18 -22 -18 -20 1 -23 -4 -23 -34 0 -32 2 -35
30 -35 28 0 29 1 31 53 0 28 -3 52 -7 52 -5 0 -9 -8 -9 -18z m0 -52 c0 -21
-24 -28 -35 -10 -8 14 3 30 21 30 8 0 14 -9 14 -20z"/>
<path d="M1810 3610 c0 -5 5 -10 10 -10 6 0 10 5 10 10 0 6 -4 10 -10 10 -5 0
-10 -4 -10 -10z"/>
<path d="M2100 3566 c0 -50 1 -53 25 -53 33 0 49 21 41 53 -5 20 -12 25 -26
21 -15 -4 -20 0 -20 14 0 10 -4 19 -10 19 -5 0 -10 -24 -10 -54z m50 -16 c0
-11 -7 -20 -15 -20 -8 0 -15 9 -15 20 0 11 7 20 15 20 8 0 15 -9 15 -20z"/>
<path d="M2540 3602 c0 -13 -7 -18 -22 -18 -20 1 -23 -4 -23 -34 0 -32 2 -35
33 -37 l32 -1 0 54 c0 30 -4 54 -10 54 -5 0 -10 -8 -10 -18z m0 -52 c0 -11 -7
-20 -15 -20 -8 0 -15 9 -15 20 0 11 7 20 15 20 8 0 15 -9 15 -20z"/>
<path d="M2580 3610 c0 -5 5 -10 10 -10 6 0 10 5 10 10 0 6 -4 10 -10 10 -5 0
-10 -4 -10 -10z"/>
<path d="M2710 3610 c0 -5 5 -10 10 -10 6 0 10 5 10 10 0 6 -4 10 -10 10 -5 0
-10 -4 -10 -10z"/>
<path d="M2800 3601 c0 -11 -6 -18 -16 -17 -9 0 -21 -7 -28 -16 -15 -25 4 -53
38 -53 25 -1 26 1 26 52 0 29 -4 53 -10 53 -5 0 -10 -8 -10 -19z m0 -51 c0
-11 -7 -20 -15 -20 -8 0 -15 9 -15 20 0 11 7 20 15 20 8 0 15 -9 15 -20z"/>
<path d="M3070 3601 c0 -11 -6 -18 -16 -17 -9 0 -21 -7 -28 -16 -15 -25 4 -53
38 -53 25 -1 26 1 26 52 0 29 -4 53 -10 53 -5 0 -10 -8 -10 -19z m0 -51 c0
-11 -7 -20 -15 -20 -8 0 -15 9 -15 20 0 11 7 20 15 20 8 0 15 -9 15 -20z"/>
<path d="M1480 3560 c0 -27 4 -50 9 -50 5 0 8 16 6 35 -3 40 8 37 31 -6 21
-42 39 -31 39 24 0 56 -12 63 -17 10 l-3 -38 -20 38 c-27 53 -45 48 -45 -13z"/>
<path d="M3283 3580 c8 -22 8 -38 0 -60 -6 -16 -8 -30 -3 -30 4 0 12 12 17 28
10 29 -1 92 -16 92 -5 0 -4 -13 2 -30z"/>
<path d="M1926 3592 c-2 -4 -1 -23 3 -42 4 -24 13 -36 26 -38 16 -3 18 -1 8 9
-7 7 -13 23 -13 36 0 13 6 23 13 23 8 0 7 4 -3 10 -18 12 -27 12 -34 2z"/>
<path d="M1602 3578 c-28 -28 -1 -75 38 -63 14 4 20 15 20 35 0 36 -33 53 -58
28z m38 -28 c0 -11 -7 -20 -15 -20 -8 0 -15 9 -15 20 0 11 7 20 15 20 8 0 15
-9 15 -20z"/>
<path d="M1810 3550 c0 -22 5 -40 10 -40 6 0 10 18 10 40 0 22 -4 40 -10 40
-5 0 -10 -18 -10 -40z"/>
<path d="M1854 3578 c-4 -6 3 -19 16 -30 17 -14 19 -18 6 -18 -9 0 -16 -4 -16
-10 0 -14 37 -13 46 2 4 6 -3 19 -16 30 -20 16 -19 23 3 19 4 0 7 4 7 9 0 14
-37 13 -46 -2z"/>
<path d="M1990 3548 c0 -21 5 -38 10 -38 6 0 10 14 10 30 0 20 5 30 15 30 8 0
15 4 15 9 0 5 -11 8 -25 7 -22 -1 -25 -6 -25 -38z"/>
<path d="M2060 3548 c0 -23 3 -39 6 -35 10 9 12 77 2 77 -4 0 -8 -19 -8 -42z"/>
<path d="M2192 3553 c3 -35 5 -38 36 -38 31 -1 32 1 32 37 0 21 -4 38 -10 38
-5 0 -10 -13 -10 -30 0 -20 -5 -30 -15 -30 -10 0 -15 10 -15 30 0 17 -5 30
-11 30 -6 0 -9 -16 -7 -37z"/>
<path d="M2281 3583 c0 -5 6 -24 13 -43 11 -30 11 -37 -3 -47 -14 -11 -14 -12
1 -13 11 0 23 13 32 33 23 56 28 77 18 77 -6 0 -13 -12 -17 -27 l-8 -28 -10
28 c-10 24 -28 38 -26 20z"/>
<path d="M2377 3584 c-13 -14 -7 -62 9 -68 24 -9 44 -7 44 4 0 6 -7 10 -16 8
-10 -2 -19 3 -21 10 -3 7 4 12 17 12 15 0 20 5 18 18 -3 17 -38 29 -51 16z
m38 -14 c3 -5 -1 -10 -10 -10 -9 0 -13 5 -10 10 3 6 8 10 10 10 2 0 7 -4 10
-10z"/>
<path d="M2580 3550 c0 -22 5 -40 10 -40 6 0 10 18 10 40 0 22 -4 40 -10 40
-5 0 -10 -18 -10 -40z"/>
<path d="M2624 3574 c3 -9 9 -27 12 -40 9 -34 23 -30 40 11 16 40 17 45 5 45
-5 0 -12 -12 -16 -27 l-8 -28 -10 28 c-6 15 -15 27 -20 27 -5 0 -6 -7 -3 -16z"/>
<path d="M2710 3550 c0 -22 5 -40 10 -40 6 0 10 18 10 40 0 22 -4 40 -10 40
-5 0 -10 -18 -10 -40z"/>
<path d="M2852 3578 c-25 -25 -6 -68 30 -68 10 0 18 5 18 10 0 6 -3 9 -7 9
-19 -3 -33 2 -33 11 0 6 11 10 25 10 14 0 25 4 25 8 0 12 -22 32 -35 32 -6 0
-16 -5 -23 -12z m33 -8 c3 -5 -1 -10 -10 -10 -9 0 -13 5 -10 10 3 6 8 10 10
10 2 0 7 -4 10 -10z"/>
<path d="M2930 3548 c0 -21 5 -38 10 -38 6 0 10 14 10 30 0 20 5 30 15 30 10
0 15 -10 15 -30 0 -16 5 -30 11 -30 6 0 9 16 7 38 -3 34 -5 37 -35 37 -32 1
-33 -1 -33 -37z"/>
<path d="M3120 3575 c-20 -24 3 -67 33 -63 18 2 22 9 22 38 0 28 -4 36 -21 38
-11 2 -27 -4 -34 -13z m45 -25 c0 -8 -8 -16 -17 -18 -13 -2 -18 3 -18 18 0 15
5 20 18 18 9 -2 17 -10 17 -18z"/>
<path d="M3204 3578 c-4 -6 2 -19 14 -28 23 -19 20 -32 -6 -23 -10 4 -13 2 -8
-5 10 -16 31 -15 45 2 10 11 7 17 -11 30 -18 13 -19 16 -5 16 9 0 17 5 17 10
0 14 -37 13 -46 -2z"/>
<path d="M2460 3140 c0 -5 5 -10 10 -10 6 0 10 5 10 10 0 6 -4 10 -10 10 -5 0
-10 -4 -10 -10z"/>
<path d="M2590 3095 c0 -30 5 -55 10 -55 6 0 10 25 10 55 0 30 -4 55 -10 55
-5 0 -10 -25 -10 -55z"/>
<path d="M1570 3090 c0 -47 2 -50 25 -50 14 0 25 5 25 10 0 6 -9 10 -20 10
-11 0 -20 5 -20 10 0 6 9 10 20 10 11 0 20 5 20 10 0 6 -9 10 -20 10 -11 0
-20 5 -20 10 0 6 9 10 20 10 11 0 20 5 20 10 0 6 -11 10 -25 10 -23 0 -25 -3
-25 -50z"/>
<path d="M2686 3118 c-9 -12 -16 -28 -16 -35 0 -20 30 -43 56 -43 20 0 24 5
24 30 0 24 -4 30 -22 30 -21 0 -21 0 -2 -21 19 -21 19 -21 -6 -18 -19 3 -25
10 -25 29 0 20 6 26 28 28 34 4 36 22 3 22 -14 0 -32 -10 -40 -22z"/>
<path d="M1651 3076 c1 -37 2 -38 8 -12 9 41 31 46 31 7 0 -17 5 -31 10 -31 6
0 10 14 10 30 0 20 5 30 15 30 10 0 15 -10 15 -30 0 -16 5 -30 11 -30 6 0 9
16 7 38 l-3 37 -52 1 -53 1 1 -41z"/>
<path d="M1791 3060 c1 -30 3 -47 6 -37 2 9 13 17 24 17 24 0 40 38 28 62 -6
11 -19 17 -34 16 -24 -2 -25 -6 -24 -58z m49 20 c0 -11 -6 -20 -13 -20 -19 0
-27 10 -20 26 8 21 33 17 33 -6z"/>
<path d="M1881 3075 l1 -40 10 33 c6 17 15 32 19 32 5 0 9 4 9 8 0 4 -9 8 -20
8 -17 0 -20 -7 -19 -41z"/>
<path d="M1952 3108 c-25 -25 -6 -68 30 -68 10 0 18 5 18 10 0 6 -3 9 -7 9
-19 -3 -33 2 -33 11 0 6 11 10 25 10 14 0 25 4 25 8 0 12 -22 32 -35 32 -6 0
-16 -5 -23 -12z m33 -8 c3 -5 -1 -10 -10 -10 -9 0 -13 5 -10 10 3 6 8 10 10
10 2 0 7 -4 10 -10z"/>
<path d="M2033 3104 c-4 -10 1 -20 11 -26 9 -5 14 -14 11 -19 -4 -5 -11 -7
-16 -4 -5 4 -9 1 -9 -4 0 -6 9 -11 20 -11 29 0 38 30 15 46 -17 13 -17 14 -1
14 9 0 14 5 11 10 -10 16 -35 12 -42 -6z"/>
<path d="M2110 3110 c0 -6 4 -9 9 -5 5 3 12 1 15 -4 3 -5 -4 -11 -15 -14 -32
-8 -21 -42 14 -42 26 -1 28 2 25 35 -2 28 -8 36 -25 38 -13 2 -23 -2 -23 -8z
m30 -45 c-7 -8 -16 -12 -21 -9 -13 8 -1 24 18 24 13 0 13 -3 3 -15z"/>
<path d="M2224 3108 c-4 -6 3 -19 16 -30 12 -10 19 -19 16 -19 -3 -1 -10 -2
-15 -3 -21 -3 -23 -16 -2 -16 29 0 39 29 16 46 -17 13 -14 19 8 15 4 0 7 4 7
9 0 14 -37 13 -46 -2z"/>
<path d="M2300 3100 c-11 -21 2 -60 20 -60 25 0 40 15 40 40 0 25 -15 40 -40
40 -5 0 -14 -9 -20 -20z m45 -20 c0 -8 -8 -16 -17 -18 -13 -2 -18 3 -18 18 0
15 5 20 18 18 9 -2 17 -10 17 -18z"/>
<path d="M2388 3095 c-8 -19 -8 -28 2 -40 14 -17 50 -21 50 -5 0 6 -9 10 -20
10 -13 0 -20 7 -20 20 0 13 7 20 20 20 11 0 20 5 20 10 0 21 -41 9 -52 -15z"/>
<path d="M2460 3080 c0 -22 5 -40 10 -40 6 0 10 18 10 40 0 22 -4 40 -10 40
-5 0 -10 -18 -10 -40z"/>
<path d="M2510 3109 c0 -6 7 -9 15 -6 8 4 17 2 20 -2 2 -5 -7 -12 -21 -15 -37
-10 -28 -41 11 -41 27 0 30 3 26 30 -1 17 -5 33 -8 38 -7 11 -43 8 -43 -4z
m40 -39 c0 -5 -7 -10 -15 -10 -8 0 -15 5 -15 10 0 6 7 10 15 10 8 0 15 -4 15
-10z"/>
<path d="M2780 3079 c0 -22 5 -39 10 -39 6 0 10 14 10 30 0 20 5 30 15 30 8 0
15 4 15 9 0 5 -11 9 -25 9 -22 0 -25 -5 -25 -39z"/>
<path d="M2850 3109 c0 -6 7 -9 15 -6 8 4 17 2 20 -2 2 -5 -7 -12 -21 -15 -35
-9 -29 -41 9 -42 15 -1 28 4 29 10 4 33 3 42 -5 54 -12 15 -47 16 -47 1z m38
-40 c-2 -6 -8 -10 -13 -10 -5 0 -11 4 -13 10 -2 6 4 11 13 11 9 0 15 -5 13
-11z"/>
<path d="M2930 3078 c0 -21 5 -38 10 -38 6 0 10 14 10 30 0 20 5 30 15 30 10
0 15 -10 15 -30 0 -16 5 -30 10 -30 6 0 10 14 10 30 0 20 5 30 15 30 10 0 15
-10 15 -32 0 -23 3 -29 9 -19 5 7 7 21 6 30 -2 9 -4 21 -4 27 -1 7 -23 11 -56
11 l-55 0 0 -39z"/>
<path d="M3082 3108 c-25 -25 -6 -68 30 -68 10 0 18 5 18 10 0 6 -3 9 -7 9
-19 -3 -33 2 -33 11 0 6 11 10 25 10 14 0 25 4 25 8 0 12 -22 32 -35 32 -6 0
-16 -5 -23 -12z m33 -8 c3 -5 -1 -10 -10 -10 -9 0 -13 5 -10 10 3 6 8 10 10
10 2 0 7 -4 10 -10z"/>
<path d="M3173 3113 c-19 -7 -16 -60 3 -67 24 -9 44 -7 44 4 0 6 -7 10 -16 8
-10 -2 -19 3 -21 10 -3 7 4 12 17 12 15 0 20 5 18 17 -3 18 -24 26 -45 16z
m32 -13 c3 -5 -1 -10 -10 -10 -9 0 -13 5 -10 10 3 6 8 10 10 10 2 0 7 -4 10
-10z"/>
<path d="M3251 3076 c1 -38 2 -39 8 -11 8 39 36 41 36 3 -1 -16 3 -28 8 -28 4
0 7 17 5 38 -3 33 -6 37 -30 38 -26 1 -28 -1 -27 -40z"/>
<path d="M2280 2940 c0 -5 5 -10 10 -10 6 0 10 5 10 10 0 6 -4 10 -10 10 -5 0
-10 -4 -10 -10z"/>
<path d="M2550 2891 c0 -29 4 -50 8 -47 10 6 9 83 -1 93 -4 3 -7 -17 -7 -46z"/>
<path d="M2600 2890 c0 -27 4 -50 8 -50 4 0 8 22 7 50 0 27 -3 50 -7 50 -5 0
-8 -22 -8 -50z"/>
<path d="M2226 2923 c-3 -4 -6 -21 -6 -40 0 -33 22 -55 38 -38 4 4 1 10 -5 12
-16 6 -17 35 -2 50 7 7 6 12 -4 16 -8 3 -18 3 -21 0z"/>
<path d="M2280 2880 c0 -22 5 -40 10 -40 6 0 10 18 10 40 0 22 -4 40 -10 40
-5 0 -10 -18 -10 -40z"/>
<path d="M2330 2863 c0 -30 5 -53 10 -53 6 0 10 8 8 18 -2 11 3 16 14 14 22
-3 38 27 28 53 -4 13 -16 20 -34 20 -25 1 -26 -1 -26 -52z m50 17 c0 -11 -6
-20 -13 -20 -19 0 -27 10 -20 26 8 21 33 17 33 -6z"/>
<path d="M2424 2906 c-11 -29 1 -61 23 -64 29 -4 48 30 33 58 -12 23 -48 27
-56 6z m46 -26 c0 -23 -25 -27 -33 -6 -7 16 1 26 20 26 7 0 13 -9 13 -20z"/>
<path d="M2640 2850 c0 -5 5 -10 10 -10 6 0 10 5 10 10 0 6 -4 10 -10 10 -5 0
-10 -4 -10 -10z"/>
<path d="M2200 2721 c0 -11 -6 -18 -16 -17 -9 0 -21 -7 -28 -16 -15 -25 4 -53
38 -53 25 -1 26 1 26 52 0 29 -4 53 -10 53 -5 0 -10 -8 -10 -19z m0 -51 c0
-11 -7 -20 -15 -20 -8 0 -15 9 -15 20 0 11 7 20 15 20 8 0 15 -9 15 -20z"/>
<path d="M2380 2722 c0 -13 -7 -18 -22 -18 -20 1 -23 -4 -23 -34 0 -32 2 -35
33 -37 l32 -1 0 54 c0 30 -4 54 -10 54 -5 0 -10 -8 -10 -18z m0 -52 c0 -11 -7
-20 -15 -20 -8 0 -15 9 -15 20 0 11 7 20 15 20 8 0 15 -9 15 -20z"/>
<path d="M2961 2689 c-1 -55 0 -56 27 -55 24 1 27 5 27 36 0 28 -4 35 -20 35
-11 0 -23 9 -27 20 -3 12 -6 -4 -7 -36z m45 -10 c10 -17 -13 -36 -27 -22 -12
12 -4 33 11 33 5 0 12 -5 16 -11z"/>
<path d="M1600 2680 c0 -47 2 -50 25 -50 31 0 33 15 3 25 l-23 8 23 4 c12 2
22 8 22 13 0 5 -10 11 -22 13 l-23 4 23 8 c30 10 28 25 -3 25 -23 0 -25 -3
-25 -50z"/>
<path d="M1682 2666 c1 -37 2 -38 5 -8 6 42 33 44 33 2 0 -16 5 -30 10 -30 6
0 10 14 10 30 0 20 5 30 15 30 10 0 15 -10 15 -30 0 -16 5 -30 11 -30 6 0 9
16 7 38 l-3 37 -52 1 -53 1 2 -41z"/>
<path d="M1820 2653 c0 -29 4 -53 10 -53 5 0 7 7 4 15 -4 10 0 15 15 15 11 0
25 9 31 20 16 29 -4 60 -35 58 -23 -2 -25 -6 -25 -55z m50 17 c0 -21 -24 -28
-35 -10 -8 14 3 30 21 30 8 0 14 -9 14 -20z"/>
<path d="M1910 2668 c0 -21 5 -38 10 -38 6 0 10 14 10 30 0 20 5 30 15 30 8 0
15 4 15 9 0 5 -11 8 -25 7 -22 -1 -25 -6 -25 -38z"/>
<path d="M1982 2698 c-25 -25 -6 -68 30 -68 10 0 18 5 18 10 0 6 -9 10 -20 10
-11 0 -20 5 -20 10 0 6 11 10 25 10 14 0 25 4 25 8 0 12 -22 32 -35 32 -6 0
-16 -5 -23 -12z m33 -8 c3 -5 -1 -10 -10 -10 -9 0 -13 5 -10 10 3 6 8 10 10
10 2 0 7 -4 10 -10z"/>
<path d="M2060 2668 c0 -21 5 -38 10 -38 6 0 10 14 10 30 0 20 5 30 15 30 10
0 15 -10 15 -30 0 -16 5 -30 11 -30 6 0 9 16 7 38 -3 34 -5 37 -35 37 -32 1
-33 -1 -33 -37z"/>
<path d="M2248 2685 c-8 -19 -8 -28 2 -40 14 -17 50 -21 50 -5 0 6 -3 9 -7 9
-19 -3 -33 2 -33 11 0 6 11 10 25 10 28 0 34 24 9 34 -26 10 -34 7 -46 -19z
m37 5 c3 -5 -1 -10 -10 -10 -9 0 -13 5 -10 10 3 6 8 10 10 10 2 0 7 -4 10 -10z"/>
<path d="M2433 2703 c-18 -7 -16 -48 3 -64 31 -26 70 25 44 56 -13 15 -25 17
-47 8z m37 -33 c0 -11 -7 -20 -15 -20 -8 0 -15 9 -15 20 0 11 7 20 15 20 8 0
15 -9 15 -20z"/>
<path d="M2510 2668 c0 -21 5 -38 10 -38 6 0 10 14 10 30 0 20 5 30 15 30 8 0
15 4 15 9 0 5 -11 8 -25 7 -22 -1 -25 -6 -25 -38z"/>
<path d="M2580 2695 c-18 -21 2 -65 30 -65 11 0 20 5 20 10 0 6 -3 9 -7 9 -19
-3 -33 2 -33 11 0 6 11 10 25 10 28 0 34 24 9 34 -23 9 -30 8 -44 -9z m40 -5
c0 -5 -7 -10 -16 -10 -8 0 -12 5 -9 10 3 6 10 10 16 10 5 0 9 -4 9 -10z"/>
<path d="M2663 2695 c-3 -9 2 -22 13 -30 18 -13 18 -14 2 -15 -25 0 -22 -20 2
-20 29 0 38 30 15 46 -17 13 -17 14 -2 14 9 0 17 5 17 10 0 16 -40 11 -47 -5z"/>
<path d="M2770 2653 c0 -29 5 -53 10 -53 6 0 10 9 10 19 0 14 5 18 19 14 13
-3 21 2 26 16 11 36 -3 60 -35 59 -29 -1 -30 -2 -30 -55z m50 17 c0 -11 -7
-20 -15 -20 -8 0 -15 9 -15 20 0 11 7 20 15 20 8 0 15 -9 15 -20z"/>
<path d="M2870 2695 c-26 -31 13 -82 44 -56 21 17 21 57 0 65 -23 9 -30 8 -44
-9z m40 -25 c0 -11 -7 -20 -15 -20 -8 0 -15 9 -15 20 0 11 7 20 15 20 8 0 15
-9 15 -20z"/>
<path d="M3051 2665 c2 -31 3 -34 6 -12 3 16 11 31 19 34 21 8 17 19 -6 19
-17 0 -20 -6 -19 -41z"/>
<path d="M3123 2703 c-19 -7 -16 -60 3 -67 24 -9 44 -7 44 4 0 6 -7 10 -16 8
-10 -2 -19 3 -21 10 -3 7 4 12 17 12 15 0 20 5 18 17 -3 18 -24 26 -45 16z
m32 -13 c3 -5 -1 -10 -10 -10 -9 0 -13 5 -10 10 3 6 8 10 10 10 2 0 7 -4 10
-10z"/>
<path d="M3194 2698 c-4 -6 2 -19 14 -28 22 -18 20 -32 -4 -23 -8 3 -14 0 -14
-6 0 -16 35 -14 49 3 10 11 7 17 -11 30 -18 13 -19 16 -5 16 9 0 17 5 17 10 0
14 -37 13 -46 -2z"/>
<path d="M1770 2520 c0 -5 5 -10 10 -10 6 0 10 5 10 10 0 6 -4 10 -10 10 -5 0
-10 -4 -10 -10z"/>
<path d="M2060 2477 c0 -51 1 -53 26 -52 34 0 53 28 38 53 -7 9 -19 16 -28 16
-10 -1 -16 6 -16 17 0 11 -4 19 -10 19 -5 0 -10 -24 -10 -53z m50 -17 c0 -11
-7 -20 -15 -20 -8 0 -15 9 -15 20 0 11 7 20 15 20 8 0 15 -9 15 -20z"/>
<path d="M2500 2512 c0 -13 -7 -18 -22 -18 -20 1 -23 -4 -23 -34 0 -32 2 -35
33 -37 l32 -1 0 54 c0 30 -4 54 -10 54 -5 0 -10 -8 -10 -18z m0 -52 c0 -11 -7
-20 -15 -20 -8 0 -15 9 -15 20 0 11 7 20 15 20 8 0 15 -9 15 -20z"/>
<path d="M2540 2520 c0 -5 5 -10 10 -10 6 0 10 5 10 10 0 6 -4 10 -10 10 -5 0
-10 -4 -10 -10z"/>
<path d="M2670 2520 c0 -5 5 -10 10 -10 6 0 10 5 10 10 0 6 -4 10 -10 10 -5 0
-10 -4 -10 -10z"/>
<path d="M2760 2511 c0 -11 -6 -18 -16 -17 -9 0 -21 -7 -28 -16 -15 -25 4 -53
38 -53 25 -1 26 1 26 52 0 29 -4 53 -10 53 -5 0 -10 -8 -10 -19z m0 -51 c0
-11 -7 -20 -15 -20 -8 0 -15 9 -15 20 0 11 7 20 15 20 8 0 15 -9 15 -20z"/>
<path d="M3030 2511 c0 -11 -6 -18 -16 -17 -9 0 -21 -7 -28 -16 -15 -25 4 -53
38 -53 25 -1 26 1 26 52 0 29 -4 53 -10 53 -5 0 -10 -8 -10 -19z m0 -51 c0
-11 -7 -20 -15 -20 -8 0 -15 9 -15 20 0 11 7 20 15 20 8 0 15 -9 15 -20z"/>
<path d="M1619 2493 c-10 -26 -4 -79 9 -87 4 -2 7 22 7 55 0 32 -1 59 -3 59
-1 0 -7 -12 -13 -27z"/>
<path d="M1670 2470 c0 -46 2 -50 23 -50 26 0 57 28 57 52 0 21 -33 48 -58 48
-20 0 -22 -5 -22 -50z m55 0 c0 -18 -6 -26 -23 -28 -20 -3 -22 0 -20 28 2 25
6 30 23 28 14 -2 20 -10 20 -28z"/>
<path d="M3243 2490 c9 -22 8 -38 0 -61 -9 -23 -9 -29 0 -26 23 7 20 117 -2
117 -5 0 -4 -13 2 -30z"/>
<path d="M1890 2470 c0 -39 21 -64 38 -45 4 4 1 10 -5 12 -7 3 -13 16 -13 29
0 13 6 24 13 24 8 0 7 4 -3 10 -25 16 -30 12 -30 -30z"/>
<path d="M1770 2460 c0 -22 5 -40 10 -40 6 0 10 18 10 40 0 22 -4 40 -10 40
-5 0 -10 -18 -10 -40z"/>
<path d="M1814 2488 c-4 -6 2 -19 14 -28 23 -19 20 -32 -6 -23 -10 4 -13 2 -8
-5 9 -15 43 -15 52 0 4 6 -3 19 -16 30 -20 16 -19 23 3 19 4 0 7 4 7 9 0 14
-37 13 -46 -2z"/>
<path d="M1950 2458 c0 -21 5 -38 10 -38 6 0 10 14 10 30 0 20 5 30 15 30 8 0
15 4 15 9 0 5 -11 8 -25 7 -22 -1 -25 -6 -25 -38z"/>
<path d="M2020 2462 c0 -23 4 -42 8 -42 10 0 8 67 -1 77 -4 3 -7 -12 -7 -35z"/>
<path d="M2150 2473 c0 -39 11 -51 43 -51 25 0 27 4 27 39 0 22 -4 39 -10 39
-5 0 -10 -13 -10 -30 0 -20 -5 -30 -15 -30 -10 0 -15 10 -15 30 0 17 -4 30
-10 30 -5 0 -10 -12 -10 -27z"/>
<path d="M2246 2478 c3 -13 10 -30 15 -38 5 -9 2 -22 -8 -32 -15 -17 -15 -18
1 -18 10 0 23 14 30 33 23 54 28 77 18 77 -6 0 -13 -12 -17 -27 l-8 -28 -10
28 c-13 32 -31 37 -21 5z"/>
<path d="M2343 2493 c-7 -2 -13 -17 -13 -33 0 -32 33 -51 54 -30 8 9 6 11 -8
8 -10 -1 -21 3 -23 10 -3 7 4 12 17 12 15 0 20 5 18 17 -3 18 -24 26 -45 16z
m32 -13 c3 -5 -1 -10 -9 -10 -9 0 -16 5 -16 10 0 6 4 10 9 10 6 0 13 -4 16
-10z"/>
<path d="M2542 2460 c-2 -23 2 -40 8 -40 5 0 10 18 10 40 0 22 -4 40 -8 40 -4
0 -9 -18 -10 -40z"/>
<path d="M2584 2484 c3 -9 9 -27 12 -40 3 -13 12 -24 19 -24 7 0 16 11 19 24
3 13 9 31 12 40 3 9 2 16 -4 16 -5 0 -13 -12 -17 -27 l-8 -28 -10 28 c-6 15
-15 27 -20 27 -5 0 -6 -7 -3 -16z"/>
<path d="M2670 2460 c0 -22 5 -40 10 -40 6 0 10 18 10 40 0 22 -4 40 -10 40
-5 0 -10 -18 -10 -40z"/>
<path d="M2812 2488 c-25 -25 -6 -68 30 -68 10 0 18 5 18 10 0 6 -3 9 -7 9
-19 -3 -33 2 -33 11 0 6 11 10 25 10 14 0 25 4 25 8 0 12 -22 32 -35 32 -6 0
-16 -5 -23 -12z m33 -8 c3 -5 -1 -10 -10 -10 -9 0 -13 5 -10 10 3 6 8 10 10
10 2 0 7 -4 10 -10z"/>
<path d="M2890 2459 c0 -21 5 -39 10 -39 6 0 10 14 10 30 0 20 5 30 15 30 10
0 15 -10 15 -30 0 -16 5 -30 11 -30 6 0 9 16 7 38 -3 34 -6 37 -35 39 -32 1
-33 0 -33 -38z"/>
<path d="M3080 2480 c-11 -21 2 -60 20 -60 25 0 40 15 40 40 0 25 -15 40 -40
40 -5 0 -14 -9 -20 -20z m45 -20 c0 -8 -8 -16 -17 -18 -13 -2 -18 3 -18 18 0
15 5 20 18 18 9 -2 17 -10 17 -18z"/>
<path d="M3164 2488 c-4 -6 2 -19 14 -28 23 -19 20 -32 -6 -23 -13 5 -14 3 -6
-6 7 -7 20 -11 30 -9 27 5 29 35 4 43 -11 3 -18 11 -14 16 3 5 10 7 15 4 5 -4
9 -1 9 4 0 15 -37 14 -46 -1z"/>
<path d="M2330 2020 c0 -47 2 -50 25 -50 14 0 25 5 25 10 0 6 -9 10 -20 10
-11 0 -20 5 -20 10 0 6 9 10 20 10 27 0 25 16 -2 25 l-23 8 23 4 c30 6 28 23
-3 23 -23 0 -25 -3 -25 -50z"/>
<path d="M2411 2006 c1 -37 2 -38 8 -12 9 41 31 46 31 7 0 -17 5 -31 10 -31 6
0 10 14 10 30 0 20 5 30 15 30 10 0 15 -10 15 -30 0 -16 5 -30 11 -30 6 0 9
16 7 38 l-3 37 -52 1 -53 1 1 -41z"/>
<path d="M2550 1991 c0 -30 3 -51 8 -47 4 4 7 13 7 19 0 7 8 11 17 9 9 -1 22
7 28 18 16 29 -3 60 -35 58 -23 -2 -25 -6 -25 -57z m47 24 c7 -20 -2 -29 -21
-22 -9 4 -13 13 -10 22 8 19 23 19 31 0z"/>
<path d="M2640 2008 c0 -21 5 -38 10 -38 6 0 10 14 10 30 0 20 5 30 15 30 8 0
15 4 15 9 0 5 -11 8 -25 7 -22 -1 -25 -6 -25 -38z"/>
<path d="M2712 2038 c-25 -25 -6 -68 30 -68 10 0 18 5 18 10 0 6 -3 9 -7 9
-19 -3 -33 2 -33 11 0 6 11 10 25 10 14 0 25 4 25 8 0 12 -22 32 -35 32 -6 0
-16 -5 -23 -12z m33 -8 c3 -5 -1 -10 -10 -10 -9 0 -13 5 -10 10 3 6 8 10 10
10 2 0 7 -4 10 -10z"/>
<path d="M2793 2034 c-4 -10 1 -20 11 -26 9 -5 14 -14 11 -19 -4 -5 -11 -7
-16 -4 -5 4 -9 1 -9 -4 0 -17 40 -13 47 4 3 9 -2 22 -13 30 -18 13 -18 14 -1
15 24 0 21 20 -3 20 -11 0 -23 -7 -27 -16z"/>
<path d="M2870 2041 c0 -6 3 -10 8 -10 23 4 33 -4 12 -10 -36 -10 -34 -46 3
-46 26 -1 28 2 25 35 -2 28 -8 36 -25 38 -13 2 -23 -1 -23 -7z m30 -39 c0 -13
-12 -22 -22 -16 -10 6 -1 24 13 24 5 0 9 -4 9 -8z"/>
<path d="M2953 2034 c-4 -10 1 -20 11 -26 9 -5 14 -14 11 -19 -4 -5 -11 -7
-16 -4 -5 4 -9 1 -9 -4 0 -6 9 -11 20 -11 29 0 38 30 15 46 -17 13 -17 14 -1
14 9 0 14 5 11 10 -10 16 -35 12 -42 -6z"/>
<path d="M3058 2025 c-15 -32 9 -63 39 -50 16 8 16 9 -4 12 -30 6 -32 43 -3
43 11 0 20 5 20 10 0 21 -41 9 -52 -15z"/>
<path d="M3143 2043 c-22 -8 -16 -61 7 -68 39 -12 66 35 38 63 -13 13 -24 14
-45 5z m37 -33 c0 -11 -7 -20 -15 -20 -8 0 -15 9 -15 20 0 11 7 20 15 20 8 0
15 -9 15 -20z"/>
<path d="M3220 2009 c0 -21 5 -39 10 -39 6 0 10 14 10 30 0 20 5 30 15 30 10
0 15 -10 15 -30 0 -16 5 -30 11 -30 6 0 9 16 7 38 -3 34 -6 37 -35 39 -32 1
-33 0 -33 -38z"/>
<path d="M2980 1826 l0 -54 33 1 c30 2 32 5 32 37 0 30 -3 35 -22 34 -16 0
-23 5 -23 18 0 10 -4 18 -10 18 -5 0 -10 -24 -10 -54z m50 -16 c0 -11 -7 -20
-15 -20 -8 0 -15 9 -15 20 0 11 7 20 15 20 8 0 15 -9 15 -20z"/>
<path d="M3120 1824 c0 -32 3 -55 6 -52 9 10 12 98 3 104 -5 3 -9 -21 -9 -52z"/>
<path d="M3160 1870 c0 -5 5 -10 10 -10 6 0 10 5 10 10 0 6 -4 10 -10 10 -5 0
-10 -4 -10 -10z"/>
<path d="M3250 1861 c0 -11 -6 -18 -16 -17 -9 0 -21 -7 -28 -16 -15 -25 4 -53
38 -53 25 -1 26 1 26 52 0 29 -4 53 -10 53 -5 0 -10 -8 -10 -19z m3 -37 c9
-10 -4 -34 -19 -34 -8 0 -14 9 -14 20 0 19 19 27 33 14z"/>
<path d="M3430 1861 c0 -11 -6 -18 -16 -17 -9 0 -21 -7 -28 -16 -15 -25 4 -53
38 -53 25 -1 26 1 26 52 0 29 -4 53 -10 53 -5 0 -10 -8 -10 -19z m0 -51 c0
-11 -7 -20 -15 -20 -8 0 -15 9 -15 20 0 11 7 20 15 20 8 0 15 -9 15 -20z"/>
<path d="M2331 1805 c2 -31 3 -34 6 -12 3 16 11 31 19 34 21 8 17 19 -6 19
-17 0 -20 -6 -19 -41z"/>
<path d="M2394 1836 c-17 -43 21 -86 50 -56 8 9 6 11 -8 8 -10 -1 -21 3 -23
10 -3 7 4 12 17 12 15 0 20 5 18 18 -4 22 -46 29 -54 8z m41 -6 c3 -5 -1 -10
-9 -10 -9 0 -16 5 -16 10 0 6 4 10 9 10 6 0 13 -4 16 -10z"/>
<path d="M2474 1838 c-4 -6 2 -19 14 -28 22 -18 20 -32 -4 -23 -8 3 -14 0 -14
-6 0 -6 11 -11 25 -11 30 0 35 33 8 49 -17 10 -17 10 0 11 9 0 17 5 17 10 0
14 -37 13 -46 -2z"/>
<path d="M2550 1792 c0 -35 4 -51 11 -47 6 4 8 13 5 20 -3 8 2 11 15 8 13 -4
21 2 28 18 12 33 -4 59 -34 57 -23 -2 -25 -6 -25 -56z m50 18 c0 -11 -7 -20
-15 -20 -8 0 -15 9 -15 20 0 11 7 20 15 20 8 0 15 -9 15 -20z"/>
<path d="M2644 1836 c-20 -53 34 -92 57 -42 9 20 9 29 -1 41 -16 19 -49 20
-56 1z m46 -26 c0 -11 -6 -20 -13 -20 -19 0 -27 10 -20 26 8 21 33 17 33 -6z"/>
<path d="M2730 1808 c0 -21 4 -38 9 -38 4 0 8 8 8 18 0 35 3 42 18 42 10 0 15
-10 15 -32 0 -33 8 -34 14 -1 6 29 -10 48 -39 48 -22 1 -25 -3 -25 -37z"/>
<path d="M2823 1835 c-3 -9 2 -22 13 -30 18 -13 18 -14 2 -15 -25 0 -22 -20 2
-20 29 0 38 30 15 46 -17 13 -17 14 -2 14 9 0 17 5 17 10 0 16 -40 11 -47 -5z"/>
<path d="M2900 1839 c0 -6 7 -9 15 -6 8 4 17 2 20 -2 2 -5 -7 -12 -21 -15 -37
-10 -28 -41 11 -41 25 0 30 4 31 25 1 14 -3 31 -8 38 -13 15 -48 16 -48 1z
m40 -39 c0 -5 -7 -10 -16 -10 -8 0 -12 5 -9 10 3 6 10 10 16 10 5 0 9 -4 9
-10z"/>
<path d="M3083 1810 c0 -25 2 -35 4 -22 2 12 2 32 0 45 -2 12 -4 2 -4 -23z"/>
<path d="M3160 1810 c0 -22 5 -40 10 -40 6 0 10 18 10 40 0 22 -4 40 -10 40
-5 0 -10 -18 -10 -40z"/>
<path d="M3305 1840 c-3 -6 4 -10 17 -11 21 -1 21 -1 -5 -11 -39 -14 -32 -43
11 -43 26 -1 32 3 32 21 0 12 -3 29 -6 38 -7 18 -39 22 -49 6z m35 -38 c0 -13
-12 -22 -22 -16 -10 6 -1 24 13 24 5 0 9 -4 9 -8z"/>
<path d="M2560 1660 c0 -5 5 -10 10 -10 6 0 10 5 10 10 0 6 -4 10 -10 10 -5 0
-10 -4 -10 -10z"/>
<path d="M2690 1615 c0 -30 5 -55 10 -55 6 0 10 25 10 55 0 30 -4 55 -10 55
-5 0 -10 -25 -10 -55z"/>
<path d="M2870 1652 c0 -13 -7 -18 -22 -18 -20 1 -23 -4 -23 -34 0 -32 2 -35
33 -37 l32 -1 0 54 c0 30 -4 54 -10 54 -5 0 -10 -8 -10 -18z m0 -52 c0 -11 -7
-20 -15 -20 -8 0 -15 9 -15 20 0 11 7 20 15 20 8 0 15 -9 15 -20z"/>
<path d="M3200 1617 c0 -53 1 -54 30 -55 24 0 31 4 36 24 9 35 -2 57 -26 51
-15 -4 -20 0 -20 14 0 10 -4 19 -10 19 -5 0 -10 -24 -10 -53z m50 -17 c0 -11
-7 -20 -15 -20 -8 0 -15 9 -15 20 0 11 7 20 15 20 8 0 15 -9 15 -20z"/>
<path d="M2776 1644 c-11 -29 -6 -81 8 -94 13 -10 13 -7 3 19 -8 23 -9 39 0
61 6 17 8 30 3 30 -4 0 -11 -7 -14 -16z"/>
<path d="M3036 1643 c-8 -8 -8 -47 0 -67 7 -17 34 -22 34 -6 0 6 -4 10 -10 10
-13 0 -13 33 1 47 7 7 6 12 -4 16 -8 3 -18 3 -21 0z"/>
<path d="M2324 1628 c-4 -6 2 -19 14 -28 22 -18 20 -32 -4 -23 -8 3 -14 0 -14
-6 0 -16 35 -14 49 3 10 11 7 17 -11 30 -20 14 -18 21 5 17 4 0 7 4 7 9 0 14
-37 13 -46 -2z"/>
<path d="M2400 1620 c-15 -28 4 -62 33 -58 16 2 23 11 25 32 5 44 -38 64 -58
26z m45 -20 c0 -8 -8 -16 -17 -18 -13 -2 -18 3 -18 18 0 15 5 20 18 18 9 -2
17 -10 17 -18z"/>
<path d="M2492 1628 c-28 -28 1 -78 35 -62 16 7 15 8 -4 11 -26 5 -33 43 -8
43 8 0 15 5 15 10 0 14 -23 13 -38 -2z"/>
<path d="M2560 1600 c0 -22 5 -40 10 -40 6 0 10 18 10 40 0 22 -4 40 -10 40
-5 0 -10 -18 -10 -40z"/>
<path d="M2610 1629 c0 -6 7 -9 15 -6 8 4 17 2 20 -2 2 -5 -7 -12 -21 -15 -37
-10 -28 -41 12 -43 27 -1 30 2 29 26 -1 15 -5 32 -9 39 -9 15 -46 16 -46 1z
m40 -37 c0 -13 -12 -22 -22 -16 -10 6 -1 24 13 24 5 0 9 -4 9 -8z"/>
<path d="M2923 1600 c0 -25 2 -35 4 -22 2 12 2 32 0 45 -2 12 -4 2 -4 -23z"/>
<path d="M2954 1628 c-4 -6 2 -19 14 -28 23 -19 20 -32 -6 -23 -10 4 -13 2 -8
-5 9 -15 43 -15 52 0 4 6 -3 19 -16 30 -20 16 -19 23 3 19 4 0 7 4 7 9 0 14
-37 13 -46 -2z"/>
<path d="M3090 1599 c0 -22 5 -39 10 -39 6 0 10 11 10 25 0 14 7 28 15 31 23
9 18 22 -10 22 -22 0 -25 -5 -25 -39z"/>
<path d="M3160 1598 c0 -23 3 -39 6 -36 9 10 12 78 3 78 -5 0 -9 -19 -9 -42z"/>
<path d="M3292 1603 c3 -35 6 -38 36 -40 31 -1 32 0 32 38 0 21 -4 39 -10 39
-5 0 -10 -13 -10 -30 0 -20 -5 -30 -15 -30 -10 0 -15 10 -15 30 0 17 -5 30
-11 30 -6 0 -9 -16 -7 -37z"/>
<path d="M3381 1633 c0 -5 6 -24 13 -43 11 -30 11 -37 -3 -47 -14 -11 -14 -12
1 -13 11 0 23 13 32 33 23 56 28 77 18 77 -6 0 -13 -12 -17 -27 l-8 -28 -10
28 c-10 24 -28 38 -26 20z"/>
<path d="M3477 1634 c-13 -14 -7 -62 9 -68 24 -9 44 -7 44 4 0 6 -7 10 -16 8
-10 -2 -19 3 -21 10 -3 7 4 12 17 12 15 0 20 5 18 18 -3 17 -38 29 -51 16z
m38 -14 c3 -5 -1 -10 -10 -10 -9 0 -13 5 -10 10 3 6 8 10 10 10 2 0 7 -4 10
-10z"/>
<path d="M2370 1441 c0 -11 -6 -18 -16 -17 -9 0 -21 -7 -28 -16 -15 -25 4 -53
38 -53 25 -1 26 1 26 52 0 29 -4 53 -10 53 -5 0 -10 -8 -10 -19z m0 -51 c0
-11 -7 -20 -15 -20 -8 0 -15 9 -15 20 0 11 7 20 15 20 8 0 15 -9 15 -20z"/>
<path d="M2420 1450 c0 -5 5 -10 11 -10 5 0 7 5 4 10 -3 6 -8 10 -11 10 -2 0
-4 -4 -4 -10z"/>
<path d="M2540 1450 c0 -5 5 -10 10 -10 6 0 10 5 10 10 0 6 -4 10 -10 10 -5 0
-10 -4 -10 -10z"/>
<path d="M2630 1446 c0 -7 -9 -16 -20 -19 -46 -12 -34 -72 14 -72 25 -1 26 1
26 52 0 29 -4 53 -10 53 -5 0 -10 -6 -10 -14z m3 -50 c7 -16 -1 -26 -20 -26
-7 0 -13 9 -13 20 0 23 25 27 33 6z"/>
<path d="M2900 1440 c0 -12 -5 -17 -13 -14 -8 3 -20 -2 -27 -11 -20 -24 1 -63
34 -61 24 1 26 4 26 54 0 28 -4 52 -10 52 -5 0 -10 -9 -10 -20z m0 -50 c0 -11
-7 -20 -15 -20 -8 0 -15 9 -15 20 0 11 7 20 15 20 8 0 15 -9 15 -20z"/>
<path d="M3115 1390 c0 -51 2 -58 13 -43 6 9 12 29 12 43 0 14 -6 34 -12 43
-11 15 -13 8 -13 -43z"/>
<path d="M2420 1388 c0 -23 2 -39 5 -36 10 10 13 78 4 78 -5 0 -9 -19 -9 -42z"/>
<path d="M2465 1394 c8 -20 15 -38 15 -40 0 -2 4 -4 9 -4 11 0 35 69 27 77 -3
3 -11 -7 -17 -23 l-11 -29 -10 28 c-5 15 -14 27 -19 27 -5 0 -2 -16 6 -36z"/>
<path d="M2540 1390 c0 -22 5 -40 10 -40 6 0 10 18 10 40 0 22 -4 40 -10 40
-5 0 -10 -18 -10 -40z"/>
<path d="M2680 1410 c-8 -14 -8 -26 0 -40 11 -20 50 -28 50 -10 0 6 -3 9 -7 9
-19 -3 -33 2 -33 11 0 6 11 10 25 10 28 0 34 24 9 34 -25 10 -33 7 -44 -14z
m37 -6 c-3 -3 -12 -4 -19 -1 -8 3 -5 6 6 6 11 1 17 -2 13 -5z"/>
<path d="M2760 1388 c0 -21 5 -38 10 -38 6 0 10 14 10 30 0 20 5 30 15 30 10
0 15 -10 15 -30 0 -16 5 -30 11 -30 6 0 9 16 7 38 -3 34 -5 37 -35 37 -32 1
-33 -1 -33 -37z"/>
<path d="M2954 1416 c-11 -28 1 -61 22 -64 31 -4 50 23 36 53 -13 27 -49 34
-58 11z m46 -26 c0 -11 -6 -20 -13 -20 -19 0 -27 10 -20 26 8 21 33 17 33 -6z"/>
<path d="M3043 1415 c-3 -9 2 -22 13 -30 18 -13 18 -14 2 -15 -25 0 -22 -20 2
-20 27 0 38 29 17 45 -22 16 -22 26 0 18 11 -4 14 -3 9 5 -10 17 -36 15 -43
-3z"/>
<path d="M3760 862 c0 -13 -7 -18 -22 -18 -20 1 -23 -4 -23 -34 0 -32 2 -35
30 -35 29 0 30 2 33 53 2 31 -1 52 -7 52 -6 0 -11 -8 -11 -18z m0 -52 c0 -11
-7 -20 -15 -20 -8 0 -15 9 -15 20 0 11 7 20 15 20 8 0 15 -9 15 -20z"/>
<path d="M3800 870 c0 -5 5 -10 10 -10 6 0 10 5 10 10 0 6 -4 10 -10 10 -5 0
-10 -4 -10 -10z"/>
<path d="M3920 870 c0 -5 5 -10 10 -10 6 0 10 5 10 10 0 6 -4 10 -10 10 -5 0
-10 -4 -10 -10z"/>
<path d="M4240 825 c0 -30 4 -55 9 -55 4 0 8 25 7 55 0 30 -4 55 -8 55 -5 0
-8 -25 -8 -55z"/>
<path d="M2840 820 c0 -47 2 -50 25 -50 31 0 33 17 3 23 l-23 4 23 8 c25 8 30
25 7 25 -8 0 -15 5 -15 10 0 6 7 10 15 10 8 0 15 5 15 10 0 6 -11 10 -25 10
-23 0 -25 -3 -25 -50z"/>
<path d="M3497 853 c-2 -5 -2 -25 0 -45 4 -29 10 -38 24 -38 23 0 24 7 4 27
-14 14 -14 17 0 33 15 16 14 18 0 24 -21 8 -23 8 -28 -1z"/>
<path d="M2921 806 c1 -37 2 -38 8 -12 9 41 31 46 31 7 0 -17 5 -31 10 -31 6
0 10 14 10 30 0 20 5 30 15 30 10 0 15 -10 15 -30 0 -16 5 -30 11 -30 6 0 9
16 7 38 l-3 37 -52 1 -53 1 1 -41z"/>
<path d="M3060 793 c0 -29 5 -53 10 -53 6 0 10 9 10 20 0 12 5 17 14 14 15 -6
25 5 31 35 4 24 -14 41 -43 38 -20 -1 -22 -7 -22 -54z m47 22 c7 -20 -2 -29
-21 -22 -9 4 -13 13 -10 22 8 19 23 19 31 0z"/>
<path d="M3150 808 c0 -44 14 -52 18 -10 1 15 7 29 12 30 17 6 11 18 -10 18
-16 0 -20 -7 -20 -38z"/>
<path d="M3222 838 c-25 -25 -6 -68 30 -68 10 0 18 5 18 10 0 6 -9 10 -20 10
-11 0 -20 5 -20 10 0 6 11 10 25 10 14 0 25 4 25 8 0 12 -22 32 -35 32 -6 0
-16 -5 -23 -12z m33 -8 c3 -5 -1 -10 -10 -10 -9 0 -13 5 -10 10 3 6 8 10 10
10 2 0 7 -4 10 -10z"/>
<path d="M3300 831 c0 -10 7 -21 15 -25 8 -3 15 -10 15 -15 0 -6 -7 -8 -15 -5
-8 4 -15 1 -15 -5 0 -6 9 -11 20 -11 29 0 38 30 15 46 -17 13 -17 14 -1 14 9
0 14 5 11 10 -11 18 -45 11 -45 -9z"/>
<path d="M3380 841 c0 -6 8 -11 18 -12 13 0 11 -3 -6 -10 -33 -13 -25 -44 11
-44 26 -1 28 2 25 35 -2 28 -8 36 -25 38 -13 2 -23 -1 -23 -7z m30 -40 c0 -6
-4 -13 -10 -16 -5 -3 -10 1 -10 9 0 9 5 16 10 16 6 0 10 -4 10 -9z"/>
<path d="M3560 808 c0 -21 5 -38 10 -38 6 0 10 14 10 30 0 20 5 30 15 30 8 0
15 4 15 9 0 5 -11 8 -25 7 -22 -1 -25 -6 -25 -38z"/>
<path d="M3630 839 c0 -6 7 -9 15 -6 8 4 17 2 20 -2 2 -5 -7 -12 -21 -15 -37
-10 -28 -41 12 -43 27 -1 30 2 30 25 -1 15 -5 33 -9 40 -10 15 -47 16 -47 1z
m40 -39 c0 -5 -7 -10 -16 -10 -8 0 -12 5 -9 10 3 6 10 10 16 10 5 0 9 -4 9
-10z"/>
<path d="M3800 810 c0 -22 5 -40 10 -40 6 0 10 18 10 40 0 22 -4 40 -10 40 -5
0 -10 -18 -10 -40z"/>
<path d="M3852 838 c-25 -25 -6 -68 30 -68 10 0 18 5 18 10 0 6 -9 10 -20 10
-13 0 -20 7 -20 20 0 13 7 20 20 20 11 0 20 5 20 10 0 14 -33 13 -48 -2z"/>
<path d="M3920 810 c0 -22 5 -40 10 -40 6 0 10 18 10 40 0 22 -4 40 -10 40 -5
0 -10 -18 -10 -40z"/>
<path d="M3972 838 c-28 -28 -1 -75 38 -63 14 4 20 15 20 35 0 36 -33 53 -58
28z m38 -28 c0 -11 -7 -20 -15 -20 -8 0 -15 9 -15 20 0 11 7 20 15 20 8 0 15
-9 15 -20z"/>
<path d="M4061 806 c1 -37 2 -38 8 -12 3 16 11 31 18 33 13 5 27 -32 18 -47
-3 -5 -1 -10 5 -10 7 0 10 15 8 38 -3 33 -6 37 -30 38 -26 1 -28 -1 -27 -40z"/>
<path d="M4160 841 c0 -6 8 -11 18 -12 13 0 11 -3 -6 -10 -33 -13 -25 -44 11
-44 26 -1 28 2 25 35 -2 28 -8 36 -25 38 -13 2 -23 -1 -23 -7z m30 -39 c0 -13
-12 -22 -22 -16 -10 6 -1 24 13 24 5 0 9 -4 9 -8z"/>
<path d="M3320 660 c0 -5 5 -10 10 -10 6 0 10 5 10 10 0 6 -4 10 -10 10 -5 0
-10 -4 -10 -10z"/>
<path d="M4080 660 c0 -5 5 -10 10 -10 6 0 10 5 10 10 0 6 -4 10 -10 10 -5 0
-10 -4 -10 -10z"/>
<path d="M2830 610 c0 -54 19 -71 21 -17 l1 32 10 -32 c6 -18 15 -33 19 -33 5
0 15 15 23 33 l14 32 1 -32 c2 -54 21 -37 21 17 0 61 -20 68 -42 13 l-14 -38
-13 38 c-19 55 -41 49 -41 -13z"/>
<path d="M2970 629 c0 -6 7 -9 15 -6 8 4 17 2 20 -2 2 -5 -7 -12 -21 -15 -37
-10 -28 -41 12 -43 27 -1 30 2 29 26 -1 15 -5 32 -9 39 -9 15 -46 16 -46 1z
m40 -39 c0 -5 -7 -10 -16 -10 -8 0 -12 5 -9 10 3 6 10 10 16 10 5 0 9 -4 9
-10z"/>
<path d="M3050 631 c0 -6 5 -13 10 -16 7 -4 7 -12 0 -25 -14 -27 -12 -34 5
-20 12 10 19 10 27 2 19 -19 29 -14 16 8 -10 16 -10 24 0 40 14 22 3 27 -17 8
-11 -10 -14 -10 -18 0 -5 14 -23 16 -23 3z"/>
<path d="M3140 600 c0 -52 14 -52 17 0 1 22 -3 40 -8 40 -5 0 -9 -18 -9 -40z"/>
<path d="M3180 598 c0 -21 5 -38 10 -38 6 0 10 14 10 30 0 20 5 30 15 30 10 0
15 -10 15 -30 0 -16 5 -30 10 -30 6 0 10 14 10 30 0 42 27 40 33 -2 4 -27 4
-25 3 7 l-1 40 -52 0 -53 1 0 -38z"/>
<path d="M3320 600 c0 -22 5 -40 10 -40 6 0 10 18 10 40 0 22 -4 40 -10 40 -5
0 -10 -18 -10 -40z"/>
<path d="M3373 633 c21 -5 21 -13 2 -39 -21 -28 -18 -34 16 -34 18 0 28 4 24
10 -4 6 -11 8 -16 5 -14 -10 -11 13 7 40 16 25 16 25 -17 24 -19 -1 -26 -3
-16 -6z"/>
<path d="M3445 630 c-3 -6 4 -10 17 -11 21 -1 21 -1 -5 -11 -39 -14 -32 -42
11 -45 27 -1 32 2 32 22 0 13 -3 30 -6 39 -7 18 -39 22 -49 6z m35 -38 c0 -13
-12 -22 -22 -16 -10 6 -1 24 13 24 5 0 9 -4 9 -8z"/>
<path d="M3567 633 c-3 -5 -5 -19 -6 -33 0 -14 -2 -34 -3 -45 -4 -25 42 -34
61 -11 10 12 8 17 -15 29 -26 14 -27 15 -7 21 11 4 23 16 26 26 4 16 0 20 -23
20 -16 0 -31 -3 -33 -7z m33 -18 c0 -8 -4 -15 -10 -15 -5 0 -10 7 -10 15 0 8
5 15 10 15 6 0 10 -7 10 -15z m5 -65 c-3 -5 -13 -10 -21 -10 -8 0 -14 5 -14
10 0 6 9 10 21 10 11 0 17 -4 14 -10z"/>
<path d="M3650 629 c0 -6 7 -9 15 -6 8 4 17 2 20 -2 2 -5 -7 -12 -21 -15 -35
-9 -28 -41 9 -42 21 -1 29 5 33 23 4 13 1 30 -6 38 -14 17 -50 20 -50 4z m40
-39 c0 -5 -7 -10 -16 -10 -8 0 -12 5 -9 10 3 6 10 10 16 10 5 0 9 -4 9 -10z"/>
<path d="M3730 599 c0 -22 5 -39 10 -39 6 0 10 14 10 30 0 20 5 30 15 30 10 0
15 -10 15 -30 0 -16 5 -30 10 -30 12 0 13 49 2 66 -4 7 -19 12 -34 12 -26 0
-28 -4 -28 -39z"/>
<path d="M3830 629 c0 -6 7 -9 15 -6 8 4 17 2 20 -2 2 -5 -7 -12 -21 -15 -35
-9 -28 -41 10 -42 33 -1 41 13 27 49 -10 27 -51 39 -51 16z m40 -39 c0 -5 -7
-10 -15 -10 -8 0 -15 5 -15 10 0 6 7 10 15 10 8 0 15 -4 15 -10z"/>
<path d="M3910 599 c0 -21 5 -39 10 -39 6 0 10 14 10 30 0 20 5 30 15 30 10 0
15 -10 15 -30 0 -16 5 -30 11 -30 6 0 9 16 7 38 -3 34 -6 37 -35 39 -32 1 -33
0 -33 -38z"/>
<path d="M4008 615 c-8 -19 -8 -28 2 -40 14 -17 50 -21 50 -5 0 6 -9 10 -20
10 -13 0 -20 7 -20 20 0 13 7 20 20 20 11 0 20 5 20 10 0 21 -41 9 -52 -15z"/>
<path d="M4080 600 c0 -22 5 -40 10 -40 6 0 10 18 10 40 0 22 -4 40 -10 40 -5
0 -10 -18 -10 -40z"/>
<path d="M4130 629 c0 -6 7 -9 15 -6 8 4 17 2 20 -2 2 -5 -7 -12 -21 -15 -38
-10 -28 -41 14 -41 26 -1 32 3 32 21 0 12 -3 29 -6 38 -7 18 -54 22 -54 5z
m40 -37 c0 -13 -12 -22 -22 -16 -10 6 -1 24 13 24 5 0 9 -4 9 -8z"/>
<path d="M4214 628 c-4 -6 3 -19 16 -30 22 -18 22 -18 1 -18 -12 0 -21 -4 -21
-10 0 -15 36 -12 49 4 10 11 7 17 -11 30 -18 13 -19 16 -5 16 9 0 17 5 17 10
0 14 -37 13 -46 -2z"/>
<path d="M2880 460 c0 -5 5 -10 11 -10 5 0 7 5 4 10 -3 6 -8 10 -11 10 -2 0
-4 -4 -4 -10z"/>
<path d="M3120 460 c0 -5 5 -10 10 -10 6 0 10 5 10 10 0 6 -4 10 -10 10 -5 0
-10 -4 -10 -10z"/>
<path d="M3170 420 c0 -52 1 -56 25 -58 19 -1 28 5 35 24 11 28 -3 58 -24 51
-6 -2 -16 5 -23 17 -11 18 -12 14 -13 -34z m50 -20 c0 -23 -25 -27 -33 -6 -7
16 1 26 20 26 7 0 13 -9 13 -20z"/>
<path d="M3600 451 c0 -11 -6 -18 -16 -17 -9 0 -21 -7 -28 -16 -15 -25 4 -53
38 -53 25 -1 26 1 26 52 0 29 -4 53 -10 53 -5 0 -10 -8 -10 -19z m3 -45 c7
-16 -1 -26 -20 -26 -7 0 -13 9 -13 20 0 23 25 27 33 6z"/>
<path d="M3650 460 c0 -5 5 -10 10 -10 6 0 10 5 10 10 0 6 -4 10 -10 10 -5 0
-10 -4 -10 -10z"/>
<path d="M3870 452 c0 -13 -7 -18 -22 -18 -20 1 -23 -4 -23 -34 0 -32 3 -35
30 -37 30 -1 30 -1 31 53 0 30 -3 54 -8 54 -4 0 -8 -8 -8 -18z m-2 -55 c2 -10
-3 -17 -12 -17 -18 0 -29 16 -21 31 9 14 29 6 33 -14z"/>
<path d="M4140 452 c0 -13 -7 -18 -22 -18 -20 1 -23 -4 -23 -34 0 -32 2 -35
33 -37 l32 -1 0 54 c0 30 -4 54 -10 54 -5 0 -10 -8 -10 -18z m-2 -54 c-2 -13
-7 -23 -13 -23 -5 0 -11 10 -13 23 -2 15 2 22 13 22 11 0 15 -7 13 -22z"/>
<path d="M2726 444 c-13 -35 -4 -104 15 -104 5 0 3 11 -3 25 -8 18 -8 35 -1
60 11 34 1 51 -11 19z"/>
<path d="M2775 413 c1 -36 6 -49 18 -51 29 -6 57 17 57 46 0 35 -17 52 -51 52
-25 0 -26 -2 -24 -47z m57 10 c7 -27 -2 -43 -23 -43 -14 0 -19 7 -19 30 0 23
5 30 19 30 10 0 21 -8 23 -17z"/>
<path d="M4353 430 c8 -22 8 -38 0 -60 -6 -16 -8 -30 -3 -30 11 0 20 26 20 60
0 34 -9 60 -20 60 -5 0 -3 -13 3 -30z"/>
<path d="M2997 443 c-9 -15 6 -75 20 -80 21 -8 27 4 10 22 -17 16 -13 45 7 45
6 0 4 5 -4 10 -18 12 -27 12 -33 3z"/>
<path d="M2880 398 c0 -23 3 -39 6 -36 9 10 12 78 3 78 -5 0 -9 -19 -9 -42z"/>
<path d="M2927 433 c-13 -13 -7 -32 13 -38 11 -4 18 -11 14 -16 -3 -6 -12 -8
-20 -5 -8 3 -14 1 -14 -4 0 -6 9 -10 20 -10 27 0 38 29 17 45 -21 15 -22 26
-2 19 8 -4 15 -1 15 5 0 12 -32 15 -43 4z"/>
<path d="M3060 397 c0 -22 4 -36 10 -32 5 3 7 12 4 19 -3 7 2 20 10 29 21 20
20 23 -4 23 -17 0 -20 -7 -20 -39z"/>
<path d="M3120 400 c0 -22 5 -40 10 -40 6 0 10 18 10 40 0 22 -4 40 -10 40 -5
0 -10 -18 -10 -40z"/>
<path d="M3262 403 c3 -34 6 -38 33 -40 28 -1 30 1 32 38 1 21 -3 39 -8 39 -5
0 -9 -11 -9 -24 0 -24 -16 -43 -27 -32 -3 3 -5 17 -5 31 0 14 -5 25 -10 25 -5
0 -8 -17 -6 -37z"/>
<path d="M3357 400 c14 -35 15 -43 3 -50 -8 -5 -11 -12 -7 -16 11 -12 29 11
48 62 12 30 14 44 6 41 -7 -2 -13 -13 -15 -25 -2 -12 -7 -22 -12 -22 -5 0 -10
10 -12 22 -2 12 -8 23 -15 25 -8 3 -7 -9 4 -37z"/>
<path d="M3442 428 c-25 -25 -6 -68 30 -68 10 0 18 4 18 10 0 6 -3 9 -7 9 -19
-3 -33 2 -33 11 0 6 11 10 25 10 14 0 25 4 25 8 0 12 -22 32 -35 32 -6 0 -16
-5 -23 -12z m33 -8 c3 -5 -1 -10 -10 -10 -9 0 -13 5 -10 10 3 6 8 10 10 10 2
0 7 -4 10 -10z"/>
<path d="M3650 400 c0 -22 5 -40 10 -40 6 0 10 18 10 40 0 22 -4 40 -10 40 -5
0 -10 -18 -10 -40z"/>
<path d="M3695 404 c8 -20 15 -38 15 -40 0 -2 4 -4 8 -4 5 0 16 18 25 40 8 22
11 40 6 40 -5 0 -11 -11 -15 -25 -3 -14 -10 -25 -14 -25 -4 0 -11 11 -14 25
-4 14 -11 25 -16 25 -6 0 -4 -16 5 -36z"/>
<path d="M3783 400 c0 -25 2 -35 4 -22 2 12 2 32 0 45 -2 12 -4 2 -4 -23z"/>
<path d="M3916 425 c-11 -28 -7 -53 10 -59 24 -9 44 -7 44 4 0 6 -9 10 -20 10
-11 0 -20 5 -20 10 0 6 9 10 21 10 14 0 19 5 17 18 -4 23 -44 28 -52 7z m39
-5 c3 -5 -1 -10 -10 -10 -9 0 -13 5 -10 10 3 6 8 10 10 10 2 0 7 -4 10 -10z"/>
<path d="M4000 398 c0 -21 5 -38 11 -38 6 0 9 7 5 15 -8 21 3 45 20 45 9 0 14
-11 14 -32 0 -21 3 -29 10 -22 5 5 6 22 2 39 -7 24 -14 30 -35 30 -25 1 -27
-2 -27 -37z"/>
<path d="M4192 431 c-8 -4 -12 -21 -10 -37 2 -23 8 -29 27 -29 31 0 50 28 35
53 -13 20 -34 25 -52 13z m38 -31 c0 -11 -7 -20 -15 -20 -8 0 -15 9 -15 20 0
11 7 20 15 20 8 0 15 -9 15 -20z"/>
<path d="M4273 425 c-3 -9 2 -22 13 -30 18 -13 18 -14 2 -15 -25 0 -22 -20 2
-20 27 0 38 29 17 45 -21 15 -22 26 -2 19 8 -4 15 -1 15 5 0 17 -40 13 -47 -4z"/>
<path d="M3780 6561 c0 -4 13 -11 30 -14 64 -13 60 44 60 -1018 0 -630 4 -977
10 -1001 6 -20 24 -48 40 -61 l29 -25 -25 -17 c-56 -36 -54 -3 -54 -1060 l0
-976 -25 -24 c-13 -14 -33 -25 -45 -25 -11 0 -20 -4 -20 -10 0 -29 93 11 109
47 8 17 11 312 11 997 0 701 3 982 11 1006 8 23 23 37 50 49 l38 17 -33 12
c-69 25 -66 -29 -66 1054 0 957 0 974 -20 1006 -11 18 -24 30 -29 27 -5 -3
-11 -1 -13 3 -4 12 -58 24 -58 13z"/>
<path d="M2100 6510 c0 -5 11 -10 25 -10 14 0 25 5 25 10 0 6 -11 10 -25 10
-14 0 -25 -4 -25 -10z"/>
<path d="M2160 6510 c0 -5 11 -10 25 -10 14 0 25 5 25 10 0 6 -11 10 -25 10
-14 0 -25 -4 -25 -10z"/>
<path d="M2220 6510 c0 -5 11 -10 25 -10 14 0 25 5 25 10 0 6 -11 10 -25 10
-14 0 -25 -4 -25 -10z"/>
<path d="M2280 6510 c0 -5 11 -10 25 -10 14 0 25 5 25 10 0 6 -11 10 -25 10
-14 0 -25 -4 -25 -10z"/>
<path d="M2340 6510 c0 -5 11 -10 25 -10 14 0 25 5 25 10 0 6 -11 10 -25 10
-14 0 -25 -4 -25 -10z"/>
<path d="M2400 6510 c0 -5 11 -10 25 -10 14 0 25 5 25 10 0 6 -11 10 -25 10
-14 0 -25 -4 -25 -10z"/>
<path d="M2460 6510 c0 -5 11 -10 25 -10 14 0 25 5 25 10 0 6 -11 10 -25 10
-14 0 -25 -4 -25 -10z"/>
<path d="M2520 6510 c0 -5 11 -10 25 -10 14 0 25 5 25 10 0 6 -11 10 -25 10
-14 0 -25 -4 -25 -10z"/>
<path d="M2580 6510 c0 -5 11 -10 25 -10 14 0 25 5 25 10 0 6 -11 10 -25 10
-14 0 -25 -4 -25 -10z"/>
<path d="M2640 6510 c0 -5 11 -10 25 -10 14 0 25 5 25 10 0 6 -11 10 -25 10
-14 0 -25 -4 -25 -10z"/>
<path d="M2700 6510 c0 -5 11 -10 25 -10 14 0 25 5 25 10 0 6 -11 10 -25 10
-14 0 -25 -4 -25 -10z"/>
<path d="M2760 6510 c0 -5 11 -10 25 -10 14 0 25 5 25 10 0 6 -11 10 -25 10
-14 0 -25 -4 -25 -10z"/>
<path d="M2820 6510 c0 -5 11 -10 25 -10 14 0 25 5 25 10 0 6 -11 10 -25 10
-14 0 -25 -4 -25 -10z"/>
<path d="M2880 6510 c0 -5 11 -10 25 -10 14 0 25 5 25 10 0 6 -11 10 -25 10
-14 0 -25 -4 -25 -10z"/>
<path d="M2940 6510 c0 -5 11 -10 25 -10 14 0 25 5 25 10 0 6 -11 10 -25 10
-14 0 -25 -4 -25 -10z"/>
<path d="M3000 6510 c0 -5 11 -10 25 -10 14 0 25 5 25 10 0 6 -11 10 -25 10
-14 0 -25 -4 -25 -10z"/>
<path d="M3060 6510 c0 -5 11 -10 25 -10 14 0 25 5 25 10 0 6 -11 10 -25 10
-14 0 -25 -4 -25 -10z"/>
<path d="M3120 6510 c0 -5 11 -10 25 -10 14 0 25 5 25 10 0 6 -11 10 -25 10
-14 0 -25 -4 -25 -10z"/>
<path d="M3180 6510 c0 -5 9 -10 20 -10 11 0 20 5 20 10 0 6 -9 10 -20 10 -11
0 -20 -4 -20 -10z"/>
<path d="M3240 6510 c0 -5 9 -10 20 -10 11 0 20 5 20 10 0 6 -9 10 -20 10 -11
0 -20 -4 -20 -10z"/>
<path d="M3300 6510 c0 -5 9 -10 20 -10 11 0 20 5 20 10 0 6 -9 10 -20 10 -11
0 -20 -4 -20 -10z"/>
<path d="M3360 6510 c0 -5 9 -10 20 -10 11 0 20 5 20 10 0 6 -9 10 -20 10 -11
0 -20 -4 -20 -10z"/>
<path d="M3420 6510 c0 -5 9 -10 20 -10 11 0 20 5 20 10 0 6 -9 10 -20 10 -11
0 -20 -4 -20 -10z"/>
<path d="M3480 6510 c0 -5 9 -10 20 -10 11 0 20 5 20 10 0 6 -9 10 -20 10 -11
0 -20 -4 -20 -10z"/>
<path d="M3540 6510 c0 -5 9 -10 20 -10 11 0 20 5 20 10 0 6 -9 10 -20 10 -11
0 -20 -4 -20 -10z"/>
<path d="M3600 6510 c0 -5 9 -10 20 -10 11 0 20 5 20 10 0 6 -9 10 -20 10 -11
0 -20 -4 -20 -10z"/>
<path d="M3660 6510 c0 -5 9 -10 20 -10 11 0 20 5 20 10 0 6 -9 10 -20 10 -11
0 -20 -4 -20 -10z"/>
<path d="M3720 6510 c0 -5 9 -10 20 -10 11 0 20 5 20 10 0 6 -9 10 -20 10 -11
0 -20 -4 -20 -10z"/>
<path d="M4130 4480 l0 -70 31 0 c41 0 69 16 69 40 0 11 -4 20 -10 20 -6 0 -5
11 2 26 11 22 10 28 -7 40 -10 8 -34 14 -52 14 l-33 0 0 -70z m68 27 c2 -12
-3 -17 -17 -17 -15 0 -21 6 -21 21 0 25 33 22 38 -4z m-3 -57 c0 -8 -8 -16
-17 -18 -13 -2 -18 3 -18 18 0 15 5 20 18 18 9 -2 17 -10 17 -18z"/>
<path d="M4260 4476 c0 -51 10 -61 63 -62 l37 0 0 53 c0 39 -4 53 -14 53 -10
0 -16 -14 -18 -42 -2 -31 -8 -44 -20 -46 -15 -3 -18 4 -18 42 0 34 -4 46 -15
46 -11 0 -15 -12 -15 -44z"/>
<path d="M4389 4504 c-12 -14 -10 -19 14 -38 34 -27 34 -36 1 -36 -14 0 -23
-4 -19 -10 9 -14 48 -13 63 2 19 19 14 37 -13 50 -30 13 -34 33 -5 25 24 -6
36 8 14 17 -26 10 -41 7 -55 -10z"/>
<path d="M4496 4505 c-34 -34 -8 -100 37 -93 28 4 33 25 5 24 -19 -1 -23 4
-23 29 0 25 4 30 23 29 12 0 21 4 19 10 -6 18 -43 18 -61 1z"/>
<path d="M4595 4510 c-3 -6 5 -10 19 -10 14 0 28 -4 31 -10 3 -6 -4 -10 -18
-10 -29 0 -50 -22 -45 -47 2 -14 13 -18 46 -19 l42 -1 0 48 c0 33 -4 49 -16
53 -24 9 -52 7 -59 -4z m55 -59 c0 -6 -5 -13 -10 -16 -15 -9 -43 3 -35 15 8
13 45 13 45 1z"/>
<path d="M4708 4514 c-2 -1 -1 -25 0 -53 4 -54 22 -72 22 -22 0 39 9 61 25 61
16 0 25 -22 25 -61 0 -16 5 -29 10 -29 11 0 14 99 3 101 -18 4 -83 6 -85 3z"/>
<path d="M4898 4509 c-22 -12 -24 -71 -4 -89 19 -15 58 -10 64 9 3 9 -1 11
-15 7 -27 -9 -51 19 -36 42 6 10 18 17 27 17 8 0 17 5 18 10 4 14 -33 17 -54
4z"/>
<path d="M4990 4475 c0 -25 0 -48 -1 -52 0 -4 4 -9 10 -11 7 -2 11 11 11 33 0
28 5 38 20 42 11 3 20 12 20 19 0 17 -12 18 -28 2 -9 -9 -12 -9 -12 0 0 7 -4
12 -10 12 -5 0 -10 -20 -10 -45z"/>
<path d="M5088 4509 c-26 -15 -24 -75 3 -89 24 -13 61 -10 66 6 2 7 -5 10 -20
7 -14 -3 -29 2 -36 11 -12 14 -9 16 23 16 28 0 36 4 36 18 0 37 -36 52 -72 31z
m47 -19 c4 -6 -5 -10 -20 -10 -15 0 -24 4 -20 10 3 6 12 10 20 10 8 0 17 -4
20 -10z"/>
<path d="M5200 4510 c-15 -10 -8 -14 22 -11 9 1 19 -3 23 -9 4 -6 -4 -10 -18
-10 -14 0 -30 -7 -38 -16 -20 -25 1 -49 45 -50 l36 -1 0 47 c0 34 -4 50 -16
54 -22 8 -37 7 -54 -4z m48 -62 c-7 -19 -38 -22 -38 -4 0 10 9 16 21 16 12 0
19 -5 17 -12z"/>
<path d="M5310 4465 c0 -30 5 -55 10 -55 6 0 10 11 10 24 0 35 10 56 26 56 8
0 14 7 14 15 0 18 -12 19 -28 3 -9 -9 -12 -9 -12 0 0 7 -4 12 -10 12 -5 0 -10
-25 -10 -55z"/>
<path d="M4360 4205 c0 -43 4 -75 10 -75 6 0 10 32 10 75 0 43 -4 75 -10 75
-6 0 -10 -32 -10 -75z"/>
<path d="M5000 4265 c0 -8 5 -15 10 -15 6 0 10 7 10 15 0 8 -4 15 -10 15 -5 0
-10 -7 -10 -15z"/>
<path d="M5178 4221 c-4 -68 0 -91 13 -91 5 0 9 34 9 75 0 89 -17 101 -22 16z"/>
<path d="M4133 4185 c29 -80 37 -76 84 43 3 6 -2 12 -10 12 -9 0 -18 -13 -22
-30 -10 -43 -22 -45 -35 -5 -6 19 -17 35 -25 35 -10 0 -8 -13 8 -55z"/>
<path d="M4257 4233 c-14 -13 -6 -20 18 -15 14 2 25 0 25 -6 0 -5 -13 -12 -29
-15 -31 -7 -48 -34 -31 -51 6 -6 29 -11 50 -12 39 0 40 1 40 34 0 18 -5 42
-10 53 -10 18 -50 26 -63 12z m41 -65 c-7 -19 -38 -22 -38 -4 0 10 9 16 21 16
12 0 19 -5 17 -12z"/>
<path d="M4426 4224 c-39 -39 1 -106 52 -88 20 7 28 17 30 40 5 54 -47 84 -82
48z m55 -25 c9 -17 8 -25 -4 -36 -19 -19 -37 -9 -37 21 0 40 23 49 41 15z"/>
<path d="M4540 4185 c0 -30 5 -55 10 -55 6 0 10 11 10 24 0 34 10 56 25 56 7
0 15 7 19 15 7 18 -15 20 -32 3 -9 -9 -12 -9 -12 0 0 7 -4 12 -10 12 -5 0 -10
-25 -10 -55z"/>
<path d="M4682 4228 c-19 -19 -14 -34 13 -46 33 -15 33 -36 0 -29 -16 3 -24 0
-22 -7 5 -16 46 -20 63 -6 21 18 17 39 -11 52 -30 13 -34 33 -5 25 13 -3 20 0
20 9 0 17 -41 19 -58 2z"/>
<path d="M4786 4224 c-32 -32 -10 -94 34 -94 26 0 50 27 50 55 0 28 -24 55
-50 55 -10 0 -26 -7 -34 -16z m53 -23 c7 -13 6 -23 -3 -36 -16 -22 -36 -12
-36 19 0 39 22 49 39 17z"/>
<path d="M4906 4225 c-34 -34 -8 -100 37 -93 28 4 33 25 5 24 -19 -1 -23 4
-23 29 0 25 4 30 23 29 12 0 21 4 19 10 -6 18 -43 18 -61 1z"/>
<path d="M5000 4185 c0 -30 5 -55 10 -55 6 0 10 25 10 55 0 30 -4 55 -10 55
-5 0 -10 -25 -10 -55z"/>
<path d="M5070 4230 c-15 -10 -8 -14 22 -11 9 1 19 -3 23 -9 3 -5 -2 -10 -12
-10 -11 0 -28 -6 -39 -14 -29 -22 -7 -51 40 -52 l36 -1 0 47 c0 34 -4 50 -16
54 -22 8 -37 7 -54 -4z m48 -62 c-7 -19 -38 -22 -38 -4 0 10 9 16 21 16 12 0
19 -5 17 -12z"/>
<path d="M4570 2222 c0 -5 14 -15 31 -23 58 -23 59 -33 59 -518 0 -463 1 -476
46 -506 l23 -14 -35 -35 -34 -34 0 -454 c0 -340 -3 -459 -13 -478 -7 -14 -27
-32 -44 -40 -18 -8 -33 -19 -33 -24 0 -17 65 5 90 29 l25 25 5 474 c5 441 6
475 23 494 10 11 29 23 43 26 29 8 32 26 5 26 -11 0 -31 14 -45 31 l-26 31 0
450 c0 485 -2 501 -53 526 -36 18 -67 24 -67 14z"/>
<path d="M3890 2200 c0 -5 11 -10 25 -10 14 0 25 5 25 10 0 6 -11 10 -25 10
-14 0 -25 -4 -25 -10z"/>
<path d="M3950 2200 c0 -5 11 -10 25 -10 14 0 25 5 25 10 0 6 -11 10 -25 10
-14 0 -25 -4 -25 -10z"/>
<path d="M4010 2200 c0 -5 11 -10 25 -10 14 0 25 5 25 10 0 6 -11 10 -25 10
-14 0 -25 -4 -25 -10z"/>
<path d="M4070 2200 c0 -5 11 -10 25 -10 14 0 25 5 25 10 0 6 -11 10 -25 10
-14 0 -25 -4 -25 -10z"/>
<path d="M4130 2200 c0 -5 11 -10 25 -10 14 0 25 5 25 10 0 6 -11 10 -25 10
-14 0 -25 -4 -25 -10z"/>
<path d="M4190 2200 c0 -5 11 -10 25 -10 14 0 25 5 25 10 0 6 -11 10 -25 10
-14 0 -25 -4 -25 -10z"/>
<path d="M4250 2200 c0 -5 11 -10 25 -10 14 0 25 5 25 10 0 6 -11 10 -25 10
-14 0 -25 -4 -25 -10z"/>
<path d="M4310 2200 c0 -5 11 -10 25 -10 14 0 25 5 25 10 0 6 -11 10 -25 10
-14 0 -25 -4 -25 -10z"/>
<path d="M4370 2200 c0 -5 11 -10 25 -10 14 0 25 5 25 10 0 6 -11 10 -25 10
-14 0 -25 -4 -25 -10z"/>
<path d="M4430 2200 c0 -5 11 -10 25 -10 14 0 25 5 25 10 0 6 -11 10 -25 10
-14 0 -25 -4 -25 -10z"/>
<path d="M4490 2200 c0 -5 11 -10 25 -10 14 0 25 5 25 10 0 6 -11 10 -25 10
-14 0 -25 -4 -25 -10z"/>
<path d="M5810 1705 c0 -61 3 -75 16 -75 12 0 15 13 13 75 -1 55 -5 75 -15 75
-11 0 -14 -19 -14 -75z"/>
<path d="M4880 1700 l0 -70 33 0 c47 0 55 10 55 65 -1 61 -11 75 -54 75 l-34
0 0 -70z m65 30 c0 -8 -10 -16 -22 -18 -18 -3 -23 2 -23 18 0 16 5 21 23 18
12 -2 22 -10 22 -18z m0 -60 c0 -22 -39 -19 -43 3 -3 15 1 18 20 15 12 -2 23
-10 23 -18z"/>
<path d="M5000 1696 c0 -50 12 -63 58 -63 l32 0 0 54 c0 63 -17 72 -22 11 -2
-31 -8 -44 -20 -46 -15 -3 -18 4 -18 42 0 34 -4 46 -15 46 -11 0 -15 -12 -15
-44z"/>
<path d="M5133 1733 c-22 -8 -14 -43 12 -55 33 -15 32 -28 -2 -28 -20 0 -24
-3 -16 -11 7 -7 23 -9 37 -5 35 9 34 39 -1 65 l-28 20 28 1 c16 0 26 4 22 10
-6 10 -31 12 -52 3z"/>
<path d="M5226 1724 c-32 -32 -10 -94 34 -94 10 0 22 5 25 10 3 6 -3 10 -14
10 -11 0 -24 8 -30 17 -13 23 4 53 30 53 11 0 17 5 14 10 -9 15 -42 12 -59 -6z"/>
<path d="M5325 1730 c-4 -6 5 -10 19 -10 36 0 32 -16 -5 -24 -26 -5 -30 -10
-27 -33 3 -25 7 -28 40 -28 l38 0 0 46 c0 34 -5 49 -16 53 -23 9 -42 7 -49 -4z
m43 -62 c-7 -19 -38 -22 -38 -4 0 10 9 16 21 16 12 0 19 -5 17 -12z"/>
<path d="M5430 1683 c0 -63 18 -71 22 -10 2 29 8 42 18 42 10 0 16 -13 18 -42
4 -57 32 -61 32 -5 0 51 -13 67 -55 67 l-35 0 0 -52z"/>
<path d="M5600 1688 c11 -29 20 -54 20 -55 0 -2 6 -3 13 -3 7 0 20 22 30 49
20 58 21 64 5 59 -6 -2 -17 -22 -23 -44 l-12 -39 -13 43 c-7 23 -19 42 -27 42
-10 0 -8 -12 7 -52z"/>
<path d="M5710 1730 c0 -5 9 -10 19 -10 11 0 23 -4 26 -10 3 -5 -3 -10 -14
-10 -30 0 -53 -27 -41 -50 7 -13 20 -18 45 -17 35 1 35 1 35 48 0 33 -5 49
-16 53 -24 9 -54 7 -54 -4z m47 -65 c-4 -8 -13 -15 -22 -15 -21 0 -19 28 3 32
22 5 26 2 19 -17z"/>
<path d="M5874 1716 c-32 -50 29 -112 70 -71 32 33 10 95 -34 95 -11 0 -27
-11 -36 -24z m57 -17 c9 -17 8 -25 -4 -36 -19 -19 -37 -9 -37 21 0 40 23 49
41 15z"/>
<path d="M5990 1688 c0 -32 4 -58 10 -58 6 0 10 18 10 39 0 31 4 41 20 46 11
3 20 11 20 16 0 11 -11 11 -30 -1 -9 -6 -17 -5 -22 3 -4 7 -8 -14 -8 -45z"/>
<path d="M5406 1505 c-3 -8 -2 -15 3 -15 5 0 14 7 21 15 10 12 10 15 -3 15 -8
0 -17 -7 -21 -15z"/>
<path d="M5665 1511 c-6 -11 9 -23 19 -14 9 9 7 23 -3 23 -6 0 -12 -4 -16 -9z"/>
<path d="M4936 1464 c-32 -32 -10 -94 34 -94 10 0 22 5 25 10 3 6 -3 10 -13
10 -11 0 -25 7 -32 15 -11 13 -7 15 24 15 28 0 36 4 36 18 0 39 -45 55 -74 26z
m49 -14 c4 -6 -5 -10 -20 -10 -15 0 -24 4 -20 10 3 6 12 10 20 10 8 0 17 -4
20 -10z"/>
<path d="M5048 1469 c-25 -14 -24 -75 1 -89 23 -12 51 -13 51 -2 0 4 -10 12
-22 17 -13 6 -23 19 -23 30 0 11 10 24 23 30 12 5 22 13 22 17 0 11 -32 9 -52
-3z"/>
<path d="M5134 1456 c-32 -50 29 -112 70 -71 32 33 10 95 -34 95 -11 0 -27
-11 -36 -24z m60 -19 c8 -12 7 -21 -6 -33 -20 -20 -38 -11 -38 20 0 39 23 46
44 13z"/>
<path d="M5248 1445 c-4 -40 1 -75 12 -75 5 0 10 19 12 42 2 31 8 44 21 46 14
3 17 -4 17 -42 0 -34 4 -46 15 -46 11 0 15 11 15 38 0 51 -13 67 -54 67 -31 0
-35 -3 -38 -30z"/>
<path d="M5376 1464 c-34 -33 -7 -98 37 -92 12 2 28 15 36 29 13 24 13 29 -2
53 -20 29 -48 34 -71 10z m52 -33 c5 -34 -16 -51 -33 -27 -10 14 -11 24 -4 38
13 24 33 18 37 -11z"/>
<path d="M5480 1423 c0 -39 4 -53 14 -53 10 0 16 14 18 43 2 29 8 42 18 42 10
0 16 -13 18 -42 2 -24 7 -43 12 -43 5 0 10 19 12 43 2 29 8 42 18 42 10 0 16
-13 18 -42 4 -57 32 -61 32 -5 0 59 -10 67 -90 68 l-70 0 0 -53z"/>
<path d="M5670 1425 c0 -30 5 -55 10 -55 6 0 10 25 10 55 0 30 -4 55 -10 55
-5 0 -10 -25 -10 -55z"/>
<path d="M5732 1468 c-17 -17 -15 -73 3 -88 16 -13 47 -10 52 6 2 6 -7 10 -19
10 -19 -1 -23 4 -23 29 0 23 5 31 23 33 12 2 22 8 22 13 0 13 -44 11 -58 -3z"/>
<path d="M5826 1464 c-22 -21 -20 -57 3 -78 25 -23 52 -17 70 15 13 24 13 29
-2 53 -20 29 -48 34 -71 10z m49 -40 c0 -19 -6 -30 -16 -32 -20 -4 -30 28 -17
52 14 25 33 14 33 -20z"/>
</g>
</svg>
